<?xml version="1.0" encoding="UTF-8"?>
<svg version="1.1" xmlns="http://www.w3.org/2000/svg" width="501" height="372">
<path d="M0 0 C-1.23566231 3.70698694 -2.47726371 4.25403671 -5.6875 6.375 C-8.77447858 8.44768562 -11.67950642 10.50666237 -14.4375 13 C-15.283125 13.66 -16.12875 14.32 -17 15 C-17.99 14.67 -18.98 14.34 -20 14 C-19.34 12.02 -18.68 10.04 -18 8 C-20.38207079 9.36378099 -22.75510176 10.74034035 -25.125 12.125 C-25.79015625 12.50398438 -26.4553125 12.88296875 -27.140625 13.2734375 C-30.62857745 15.32517423 -33.54588366 17.38733928 -36.3671875 20.3046875 C-37.23601562 21.19414063 -38.10484375 22.08359375 -39 23 C-39.66 23 -40.32 23 -41 23 C-41.226875 23.515625 -41.45375 24.03125 -41.6875 24.5625 C-43.4975553 27.92403127 -45.73996404 30.92911144 -48 34 C-45.63193343 32.83337897 -43.29704798 31.62406561 -40.96875 30.37890625 C-39.25171875 29.47978516 -39.25171875 29.47978516 -37.5 28.5625 C-36.3759375 27.96566406 -35.251875 27.36882812 -34.09375 26.75390625 C-24.778997 22.41281917 -14.3935649 21.38965471 -4.3125 20.125 C17.06575353 17.79121808 17.06575353 17.79121808 35 7 C35.49757813 6.27941406 35.99515625 5.55882812 36.5078125 4.81640625 C37.00023437 4.21699219 37.49265625 3.61757813 38 3 C38.99 3 39.98 3 41 3 C40.36975762 7.65479018 38.47570994 11.54486865 36.375 15.6875 C36.02179688 16.39068359 35.66859375 17.09386719 35.3046875 17.81835938 C32.35132464 23.5721431 28.94641638 28.86965871 25 34 C25.6703125 34.10183594 26.340625 34.20367187 27.03125 34.30859375 C53.85437078 40.55555741 78.82510138 62.66387822 93.46875 85.26708984 C99.56883468 95.10874907 104.9189877 105.14947068 109 116 C109.3609375 116.90105469 109.721875 117.80210937 110.09375 118.73046875 C112.38392439 125.09754841 111.93460833 129.59329707 110 136 C109.71253906 137.0415625 109.42507813 138.083125 109.12890625 139.15625 C103.89829356 156.47666713 95.51758007 173.2938398 85 188 C84.24460937 189.05832031 83.48921875 190.11664063 82.7109375 191.20703125 C60.28052584 221.78765226 29.68827336 243.47581077 -3.375 261.3125 C-4.23657715 261.7871167 -5.0981543 262.2617334 -5.98583984 262.75073242 C-12.40277411 266.12123696 -16.66817842 266.96950546 -23.8125 264.890625 C-25.21485607 264.3607001 -26.61045191 263.8126536 -28 263.25 C-28.76763672 262.94344482 -29.53527344 262.63688965 -30.32617188 262.32104492 C-51.88442316 253.43062447 -72.47566261 241.44382245 -90 226 C-90.96035156 225.16082031 -91.92070312 224.32164062 -92.91015625 223.45703125 C-126.30188005 193.8380472 -146.32376739 154.40387391 -157.875 111.75 C-158.0905957 110.96351074 -158.30619141 110.17702148 -158.52832031 109.36669922 C-159.63080741 105.14049869 -160.23868158 101.40858927 -160 97 C-159.34 97 -158.68 97 -158 97 C-157.53851563 98.07894531 -157.07703125 99.15789062 -156.6015625 100.26953125 C-139.29298241 140.26376401 -115.08214794 175.56264763 -73.11035156 192.20166016 C-54.95905796 199.06824161 -31.30756895 198.37862655 -13.3125 191.3125 C1.71452478 183.92444515 13.2834217 171.34960109 18.875 155.5234375 C21.45175021 145.39537766 20.61219553 135.21535052 15.3359375 126.13671875 C11.06016042 119.8422979 6.6651341 115.62696343 0 112 C-0.64710938 111.62359375 -1.29421875 111.2471875 -1.9609375 110.859375 C-10.87479422 105.98404112 -20.2607279 104.47498627 -30.3125 104.625 C-31.82179077 104.64240234 -31.82179077 104.64240234 -33.36157227 104.66015625 C-52.31434751 105.07459108 -69.20380468 111.54015241 -82.91796875 124.86328125 C-87.45607608 129.69167264 -90.31895427 134.97073586 -93 141 C-96.26630906 141.36162707 -97.70015516 141.19396213 -100.5 139.3828125 C-108.628267 132.04197136 -113.38402067 125.08762789 -114 114 C-113.18917969 113.79246094 -112.37835938 113.58492188 -111.54296875 113.37109375 C-95.8594143 109.00745055 -82.31628436 98.59962077 -71 87 C-73.75365841 87.45098452 -76.50613171 87.90816392 -79.2578125 88.37109375 C-81.16967357 88.69239817 -83.08162171 89.013284 -84.99511719 89.32470703 C-110.27260028 92.42191375 -110.27260028 92.42191375 -130.25 105.875 C-131.11625 107.421875 -131.11625 107.421875 -132 109 C-136.86106776 108.03415466 -139.77653675 105.70976159 -143 102 C-147.31638393 94.69683255 -150.16104912 88.53560337 -150 80 C-149.13955078 80.12181641 -149.13955078 80.12181641 -148.26171875 80.24609375 C-134.32841307 81.28210586 -117.61508009 73.39585745 -106 66 C-102.52226212 62.60088923 -101.42627191 59.56794167 -100.38134766 54.97290039 C-98.23785556 45.56282538 -95.11649391 40.55001362 -87 35 C-85.91721386 34.21066992 -84.83521686 33.42025647 -83.75390625 32.62890625 C-61.62689018 16.85884008 -28.0527493 -1.19373401 0 0 Z M-85.97265625 58.4453125 C-87.74443038 60.23959556 -89.42671859 62.03064775 -91 64 C-85.13812354 65.95395882 -77.41886802 61.66722207 -72 59 C-67.70112869 56.07755031 -65.43559032 53.59716449 -64.0625 48.5625 C-64.041875 47.716875 -64.02125 46.87125 -64 46 C-70.42257704 46 -81.1760696 54.4996315 -85.97265625 58.4453125 Z " fill="#D12D5D" transform="translate(266,52)"/>
<path d="M0 0 C-1.23566231 3.70698694 -2.47726371 4.25403671 -5.6875 6.375 C-8.77447858 8.44768562 -11.67950642 10.50666237 -14.4375 13 C-15.283125 13.66 -16.12875 14.32 -17 15 C-17.99 14.67 -18.98 14.34 -20 14 C-19.34 12.02 -18.68 10.04 -18 8 C-20.38207079 9.36378099 -22.75510176 10.74034035 -25.125 12.125 C-25.79015625 12.50398438 -26.4553125 12.88296875 -27.140625 13.2734375 C-30.62857745 15.32517423 -33.54588366 17.38733928 -36.3671875 20.3046875 C-37.23601562 21.19414063 -38.10484375 22.08359375 -39 23 C-39.66 23 -40.32 23 -41 23 C-41.226875 23.515625 -41.45375 24.03125 -41.6875 24.5625 C-43.4975553 27.92403127 -45.73996404 30.92911144 -48 34 C-45.63193343 32.83337897 -43.29704798 31.62406561 -40.96875 30.37890625 C-39.25171875 29.47978516 -39.25171875 29.47978516 -37.5 28.5625 C-36.3759375 27.96566406 -35.251875 27.36882812 -34.09375 26.75390625 C-24.778997 22.41281917 -14.3935649 21.38965471 -4.3125 20.125 C17.06575353 17.79121808 17.06575353 17.79121808 35 7 C35.49757813 6.27941406 35.99515625 5.55882812 36.5078125 4.81640625 C37.00023437 4.21699219 37.49265625 3.61757813 38 3 C38.99 3 39.98 3 41 3 C40.36975762 7.65479018 38.47570994 11.54486865 36.375 15.6875 C36.02179688 16.39068359 35.66859375 17.09386719 35.3046875 17.81835938 C32.35132464 23.5721431 28.94641638 28.86965871 25 34 C25.6703125 34.10183594 26.340625 34.20367187 27.03125 34.30859375 C53.85437078 40.55555741 78.82510138 62.66387822 93.46875 85.26708984 C101.12832541 97.62477584 108.50286295 110.51660512 111 125 C110.34 124.67 109.68 124.34 109 124 C109 123.34 109 122.68 109 122 C108.34 122 107.68 122 107 122 C104 116.25 104 116.25 104 114 C103.34 114 102.68 114 102 114 C101.01 112.7625 101.01 112.7625 100 111.5 C93.92205182 103.9204411 84.67800529 97.33900264 76 93 C76 92.34 76 91.68 76 91 C75.13375 90.896875 74.2675 90.79375 73.375 90.6875 C70 90 70 90 67.1953125 88.546875 C63.90862657 86.95576543 61.07871369 86.23559919 57.5 85.5625 C50.19201692 84.09778697 43.13523694 82.13623355 36 80 C36 80.66 36 81.32 36 82 C35.01 82.495 35.01 82.495 34 83 C34.39832031 83.70125 34.79664063 84.4025 35.20703125 85.125 C35.73683594 86.07375 36.26664063 87.0225 36.8125 88 C37.33457031 88.928125 37.85664063 89.85625 38.39453125 90.8125 C41.63654223 97.24919333 43.6985706 104.01067823 45.625 110.9375 C45.8415625 111.68451172 46.058125 112.43152344 46.28125 113.20117188 C47.75333118 118.4670425 48.51318823 123.55311717 49 129 C46.73269421 126.8155833 45.36571872 124.99991167 44.0625 122.125 C42.12940842 118.10328073 40.1283026 114.0641513 36 112 C36 111.34 36 110.68 36 110 C35.34 110 34.68 110 34 110 C33.9175 109.38125 33.835 108.7625 33.75 108.125 C32.75625518 105.30938969 31.6275307 105.27092518 29 104 C27.88776785 103.09697342 26.80439062 102.157437 25.75 101.1875 C22.55672951 98.35442488 19.20809284 96.18677012 15.50390625 94.078125 C15.00761719 93.72234375 14.51132812 93.3665625 14 93 C14 92.34 14 91.68 14 91 C13.030625 90.896875 12.06125 90.79375 11.0625 90.6875 C7.24046006 90.15365232 3.78708842 88.97374251 0.15625 87.69921875 C-2.52894667 86.82847563 -5.20362496 86.35850962 -8 86 C-8 86.66 -8 87.32 -8 88 C-7.01 88 -6.02 88 -5 88 C-5 88.66 -5 89.32 -5 90 C-4.01 90 -3.02 90 -2 90 C0.5 92.3125 0.5 92.3125 3 95 C3.598125 95.556875 4.19625 96.11375 4.8125 96.6875 C6 98 6 98 6 100 C6.66 100 7.32 100 8 100 C9.2890625 101.6796875 9.2890625 101.6796875 10.625 103.875 C11.07101562 104.59429687 11.51703125 105.31359375 11.9765625 106.0546875 C13 108 13 108 13 110 C13.99 110 14.98 110 16 110 C17.32388229 116.43028541 18.24794402 122.4294834 18 129 C17.1646875 127.948125 17.1646875 127.948125 16.3125 126.875 C15.549375 125.92625 14.78625 124.9775 14 124 C13.278125 123.030625 12.55625 122.06125 11.8125 121.0625 C3.96395764 111.69721479 -9.89616411 105.93164687 -21.82226562 104.71118164 C-24.65920852 104.59975867 -27.47374314 104.58263409 -30.3125 104.625 C-31.82179077 104.64240234 -31.82179077 104.64240234 -33.36157227 104.66015625 C-52.31434751 105.07459108 -69.20380468 111.54015241 -82.91796875 124.86328125 C-87.45607608 129.69167264 -90.31895427 134.97073586 -93 141 C-96.26630906 141.36162707 -97.70015516 141.19396213 -100.5 139.3828125 C-108.628267 132.04197136 -113.38402067 125.08762789 -114 114 C-113.18917969 113.79246094 -112.37835938 113.58492188 -111.54296875 113.37109375 C-95.8594143 109.00745055 -82.31628436 98.59962077 -71 87 C-73.75365841 87.45098452 -76.50613171 87.90816392 -79.2578125 88.37109375 C-81.16967357 88.69239817 -83.08162171 89.013284 -84.99511719 89.32470703 C-110.27260028 92.42191375 -110.27260028 92.42191375 -130.25 105.875 C-131.11625 107.421875 -131.11625 107.421875 -132 109 C-136.86106776 108.03415466 -139.77653675 105.70976159 -143 102 C-147.31638393 94.69683255 -150.16104912 88.53560337 -150 80 C-149.13955078 80.12181641 -149.13955078 80.12181641 -148.26171875 80.24609375 C-134.32841307 81.28210586 -117.61508009 73.39585745 -106 66 C-102.52226212 62.60088923 -101.42627191 59.56794167 -100.38134766 54.97290039 C-98.23785556 45.56282538 -95.11649391 40.55001362 -87 35 C-85.91721386 34.21066992 -84.83521686 33.42025647 -83.75390625 32.62890625 C-61.62689018 16.85884008 -28.0527493 -1.19373401 0 0 Z M-85.97265625 58.4453125 C-87.74443038 60.23959556 -89.42671859 62.03064775 -91 64 C-85.13812354 65.95395882 -77.41886802 61.66722207 -72 59 C-67.70112869 56.07755031 -65.43559032 53.59716449 -64.0625 48.5625 C-64.041875 47.716875 -64.02125 46.87125 -64 46 C-70.42257704 46 -81.1760696 54.4996315 -85.97265625 58.4453125 Z " fill="#F04D6A" transform="translate(266,52)"/>
<path d="M0 0 C6.28002114 0.49255068 11.83924078 2.10234525 17.828125 4.02734375 C20.45188666 4.83192091 22.99947881 5.47097455 25.6875 6 C30.70551412 7.02598802 35.30881812 8.98249798 40 11 C40 11.66 40 12.32 40 13 C40.928125 13.2475 41.85625 13.495 42.8125 13.75 C46.16458325 15.06454245 47.1877803 15.97963384 49 19 C48.01 19 47.02 19 46 19 C46 18.34 46 17.68 46 17 C43.59122743 17.11341534 43.59122743 17.11341534 41 18 C39.31166326 20.23101641 38.20694004 22.08158041 37.58984375 24.8203125 C36.23432884 29.82943382 33.37928314 34.41376498 31 39 C30.51015625 39.95003906 30.0203125 40.90007812 29.515625 41.87890625 C26.5694204 47.44659935 23.31905883 52.61655821 19.61328125 57.7109375 C17.95010994 60.00804422 17.95010994 60.00804422 16.46484375 62.58203125 C15.18130324 64.70072879 13.88391291 66.46287386 12.25 68.3125 C11.72664063 68.90675781 11.20328125 69.50101562 10.6640625 70.11328125 C9.84035156 71.04720703 9.84035156 71.04720703 9 72 C8.45085937 72.65355469 7.90171875 73.30710937 7.3359375 73.98046875 C-2.12889299 85.1524262 -2.12889299 85.1524262 -7.890625 87.90234375 C-11.87458947 89.97548082 -15.07273814 93.26020437 -18.44140625 96.19921875 C-19.28574219 96.79347656 -20.13007813 97.38773437 -21 98 C-22.485 97.505 -22.485 97.505 -24 97 C-23.67 95.02 -23.34 93.04 -23 91 C-20.03 90.01 -20.03 90.01 -17 89 C-17 87.35 -17 85.7 -17 84 C-16.67 84.99 -16.34 85.98 -16 87 C-15.67 86.67 -15.34 86.34 -15 86 C-15.165 84.9275 -15.33 83.855 -15.5 82.75 C-16.04039645 78.69702665 -15.56321387 76.00724343 -14.48046875 72.1484375 C-13.20639768 66.45137173 -13.23168231 61.007156 -15.875 55.75 C-19.82955265 47.86894117 -20.13250712 38.67921658 -20 30 C-20.99 30 -21.98 30 -23 30 C-24.38671875 28.3203125 -24.38671875 28.3203125 -25.6875 26.125 C-26.12449219 25.40570313 -26.56148438 24.68640625 -27.01171875 23.9453125 C-28 22 -28 22 -28 20 C-28.66 20 -29.32 20 -30 20 C-31.34423339 18.34211215 -32.67618483 16.67423683 -34 15 C-34.7425 14.443125 -35.485 13.88625 -36.25 13.3125 C-36.8275 12.879375 -37.405 12.44625 -38 12 C-38 11.34 -38 10.68 -38 10 C-38.99 10 -39.98 10 -41 10 C-41 9.34 -41 8.68 -41 8 C-41.99 8 -42.98 8 -44 8 C-44 7.34 -44 6.68 -44 6 C-35.96448307 5.19644831 -29.36623855 8.10316461 -22 11 C-22 11.66 -22 12.32 -22 13 C-21.2678125 13.26039063 -20.535625 13.52078125 -19.78125 13.7890625 C-16.93931188 15.0264232 -14.90579764 16.43511388 -12.5 18.375 C-11.7265625 18.99761719 -10.953125 19.62023437 -10.15625 20.26171875 C-9.4446875 20.83535156 -8.733125 21.40898437 -8 22 C-7.01 22.721875 -6.02 23.44375 -5 24.1875 C-2.85396489 26.13234431 -2.30464655 27.1566322 -2 30 C-1.34 30 -0.68 30 0 30 C0 30.66 0 31.32 0 32 C0.556875 32.185625 1.11375 32.37125 1.6875 32.5625 C7.18551077 35.98018237 9.73680672 42.16334365 12 48 C10.39979093 34.4258127 7.12563377 19.19250596 -0.80078125 7.875 C-2.05632709 5.91193159 -2.5681442 4.27613409 -3 2 C-2.01 2 -1.02 2 0 2 C0 1.34 0 0.68 0 0 Z " fill="#E02E5C" transform="translate(302,132)"/>
<path d="M0 0 C0.66 0 1.32 0 2 0 C2.46148437 1.07894531 2.92296875 2.15789062 3.3984375 3.26953125 C20.70701759 43.26376401 44.91785206 78.56264763 86.88964844 95.20166016 C103.64362642 101.53964118 124.96624694 101.20866829 142 96 C142.93585938 95.71382813 143.87171875 95.42765625 144.8359375 95.1328125 C146.90484813 94.46439522 148.95566811 93.74018913 151 93 C151 93.66 151 94.32 151 95 C148.81890048 96.01643473 146.63183538 97.01288256 144.4375 98 C143.82841797 98.28617187 143.21933594 98.57234375 142.59179688 98.8671875 C138.22576975 100.807644 134.74919505 101.29338657 130 101 C129.67 101.66 129.34 102.32 129 103 C128.67 102.67 128.34 102.34 128 102 C126.36286853 101.98332326 124.72489931 102.03700518 123.08984375 102.12109375 C122.10048828 102.16943359 121.11113281 102.21777344 120.09179688 102.26757812 C119.05087891 102.32365234 118.00996094 102.37972656 116.9375 102.4375 C115.89271484 102.48970703 114.84792969 102.54191406 113.77148438 102.59570312 C111.18071764 102.72583296 108.59029334 102.86081158 106 103 C106 103.99 106 104.98 106 106 C104.02 105.505 104.02 105.505 102 105 C102 104.34 102 103.68 102 103 C101.34 103 100.68 103 100 103 C100 102.34 100 101.68 100 101 C99.38511719 100.93941406 98.77023438 100.87882812 98.13671875 100.81640625 C96.92435547 100.69072266 96.92435547 100.69072266 95.6875 100.5625 C94.48673828 100.44068359 94.48673828 100.44068359 93.26171875 100.31640625 C91 100 91 100 88 99 C87.030625 99 86.06125 99 85.0625 99 C82.41842856 99 80.52053583 98.63013396 78 98 C77.01 98.495 77.01 98.495 76 99 C73.99199544 98.71887936 71.98985949 98.38932033 70 98 C70 95.69 70 93.38 70 91 C69.15115234 90.83564453 69.15115234 90.83564453 68.28515625 90.66796875 C67.18494141 90.43013672 67.18494141 90.43013672 66.0625 90.1875 C64.96615234 89.96126953 64.96615234 89.96126953 63.84765625 89.73046875 C63.23792969 89.48941406 62.62820312 89.24835938 62 89 C61.67 88.01 61.34 87.02 61 86 C60.01 85.67 59.02 85.34 58 85 C58 84.34 58 83.68 58 83 C55.36 82.67 52.72 82.34 50 82 C49.7525 81.030625 49.505 80.06125 49.25 79.0625 C48.63125 77.5465625 48.63125 77.5465625 48 76 C45.96756452 75.03122943 45.96756452 75.03122943 44 75 C44 74.34 44 73.68 44 73 C43.34 73 42.68 73 42 73 C41.67 73.66 41.34 74.32 41 75 C40.01 74.67 39.02 74.34 38 74 C38.020625 73.071875 38.04125 72.14375 38.0625 71.1875 C38.15769604 67.97713989 38.15769604 67.97713989 37 65 C36.01 64.67 35.02 64.34 34 64 C33.67 62.35 33.34 60.7 33 59 C30.525 59.495 30.525 59.495 28 60 C28.33 58.68 28.66 57.36 29 56 C27.04105639 56.11306697 27.04105639 56.11306697 25 57 C23.47730529 59.2225097 23.47730529 59.2225097 23 62 C23.98047754 65.83277583 24.63883517 66.75922345 28 69 C29.1875 72.625 29.1875 72.625 30 76 C31.98 76.33 33.96 76.66 36 77 C34.02 77.99 34.02 77.99 32 79 C33.65 79 35.3 79 37 79 C37.33 79.99 37.66 80.98 38 82 C37.01 82.495 37.01 82.495 36 83 C36.99 83.495 36.99 83.495 38 84 C38 86.31 38 88.62 38 91 C39.98 91 41.96 91 44 91 C44 92.32 44 93.64 44 95 C44.99 95.495 44.99 95.495 46 96 C46 97.32 46 98.64 46 100 C48.31 100.33 50.62 100.66 53 101 C53.33 101.99 53.66 102.98 54 104 C53.34 104 52.68 104 52 104 C52 104.66 52 105.32 52 106 C52.969375 106.268125 53.93875 106.53625 54.9375 106.8125 C56.4534375 107.4003125 56.4534375 107.4003125 58 108 C58.33 108.99 58.66 109.98 59 111 C59.99 111.33 60.98 111.66 62 112 C62.33 112.99 62.66 113.98 63 115 C65.50447516 116.21869929 65.50447516 116.21869929 68 117 C68 117.66 68 118.32 68 119 C68.66 119.33 69.32 119.66 70 120 C69.95875 120.78375 69.9175 121.5675 69.875 122.375 C69.71271266 125.16116119 69.71271266 125.16116119 72 127 C72.99 127 73.98 127 75 127 C75 127.66 75 128.32 75 129 C75.66 129.33 76.32 129.66 77 130 C77 130.66 77 131.32 77 132 C77.99 132 78.98 132 80 132 C80 132.66 80 133.32 80 134 C80.99 134 81.98 134 83 134 C84.66666667 135.66666667 86.33333333 137.33333333 88 139 C90.09415804 139.79623822 90.09415804 139.79623822 92 140 C94 141 94 141 94.75 142.875 C96.56834542 145.96618722 98.7040014 146.74752053 102 148 C104.09821215 147.60061233 104.09821215 147.60061233 106 147 C108.1875 147.6875 108.1875 147.6875 110 149 C110.33333333 150.33333333 110.66666667 151.66666667 111 153 C113.96790831 154.91649685 116.14314921 155.18631977 119.625 155 C121.9765625 154.875 121.9765625 154.875 124 155 C124.66 155.66 125.32 156.32 126 157 C125.34 157.33 124.68 157.66 124 158 C124.66 158.33 125.32 158.66 126 159 C126 159.66 126 160.32 126 161 C126.94875 161.144375 127.8975 161.28875 128.875 161.4375 C132 162 132 162 134 163 C134 163.66 134 164.32 134 165 C134.66 165 135.32 165 136 165 C136.33 164.34 136.66 163.68 137 163 C138.66611905 162.957279 140.33382885 162.95936168 142 163 C142.33 163.33 142.66 163.66 143 164 C147.39450749 163.56054925 151.68330172 162.94427775 156 162 C156 161.34 156 160.68 156 160 C156.99 160 157.98 160 159 160 C159.33 158.68 159.66 157.36 160 156 C160.61488281 155.92523438 161.22976563 155.85046875 161.86328125 155.7734375 C164.37475548 155.36487231 166.62108228 154.91107487 169 154 C171.14665717 151.04765553 171.14665717 151.04765553 172 148 C172.99 148.66 173.98 149.32 175 150 C175.721875 149.525625 176.44375 149.05125 177.1875 148.5625 C179.89475226 147.05847097 181.96194275 146.43400818 185 146 C185 145.34 185 144.68 185 144 C186.98 143.34 188.96 142.68 191 142 C191 141.34 191 140.68 191 140 C191.66 140 192.32 140 193 140 C193 139.34 193 138.68 193 138 C194.32 138.33 195.64 138.66 197 139 C188.65158247 145.37889649 179.9515266 150.95723985 170.875 156.25 C169.39290039 157.1164917 169.39290039 157.1164917 167.88085938 158.00048828 C164.93708755 159.69885565 161.97639981 161.35952596 159 163 C157.43233887 163.86915039 157.43233887 163.86915039 155.83300781 164.75585938 C148.64138036 168.57438301 144.23155876 170.23131423 136.1875 167.890625 C134.78514393 167.3607001 133.38954809 166.8126536 132 166.25 C130.84854492 165.79016724 130.84854492 165.79016724 129.67382812 165.32104492 C108.11557684 156.43062447 87.52433739 144.44382245 70 129 C69.03964844 128.16082031 68.07929688 127.32164062 67.08984375 126.45703125 C33.69811995 96.8380472 13.67623261 57.40387391 2.125 14.75 C1.9094043 13.96351074 1.69380859 13.17702148 1.47167969 12.36669922 C0.36919259 8.14049869 -0.23868158 4.40858927 0 0 Z " fill="#94325E" transform="translate(106,149)"/>
<path d="M0 0 C0.99 0 1.98 0 3 0 C2.36975762 4.65479018 0.47570994 8.54486865 -1.625 12.6875 C-1.97820312 13.39068359 -2.33140625 14.09386719 -2.6953125 14.81835938 C-5.64867536 20.5721431 -9.05358362 25.86965871 -13 31 C-12.3296875 31.10183594 -11.659375 31.20367187 -10.96875 31.30859375 C15.85437078 37.55555741 40.82510138 59.66387822 55.46875 82.26708984 C63.12832541 94.62477584 70.50286295 107.51660512 73 122 C72.34 121.67 71.68 121.34 71 121 C71 120.34 71 119.68 71 119 C70.34 119 69.68 119 69 119 C66 113.25 66 113.25 66 111 C65.34 111 64.68 111 64 111 C63.01 109.7625 63.01 109.7625 62 108.5 C55.92205182 100.9204411 46.67800529 94.33900264 38 90 C38 89.34 38 88.68 38 88 C37.34 88 36.68 88 36 88 C36 87.34 36 86.68 36 86 C37.485 86.495 37.485 86.495 39 87 C39 87.66 39 88.32 39 89 C40.4540625 89.185625 40.4540625 89.185625 41.9375 89.375 C42.948125 89.58125 43.95875 89.7875 45 90 C45.33 90.66 45.66 91.32 46 92 C47.32 91.67 48.64 91.34 50 91 C50 91.99 50 92.98 50 94 C50.66 94 51.32 94 52 94 C52 94.66 52 95.32 52 96 C52.66 95.67 53.32 95.34 54 95 C52.95125002 92.37812506 52.35068687 91.20628639 49.875 89.75 C49.25625 89.5025 48.6375 89.255 48 89 C48 87.68 48 86.36 48 85 C46.65847193 83.39205979 46.65847193 83.39205979 44.8125 82.0625 C41.66429844 79.54266932 38.81738555 76.8935311 36 74 C35.236875 73.236875 34.47375 72.47375 33.6875 71.6875 C33.130625 71.130625 32.57375 70.57375 32 70 C36 70 36 70 38.25 72 C38.8275 72.66 39.405 73.32 40 74 C39.43260132 69.87026372 39.43260132 69.87026372 38 66 C35.47266765 65.34444881 35.47266765 65.34444881 33 65 C32.505 61.535 32.505 61.535 32 58 C29.36 57.67 26.72 57.34 24 57 C23.835 56.113125 23.67 55.22625 23.5 54.3125 C21.43230919 49.74634947 18.32353858 48.27237144 14 46 C14 46.66 14 47.32 14 48 C12.35 48 10.7 48 9 48 C9.33 46.68 9.66 45.36 10 44 C5.72636097 40.46319528 1.97959504 40.80167949 -3.28125 41.08984375 C-6.266266 40.99120098 -8.30955503 40.25261659 -11 39 C-11 38.34 -11 37.68 -11 37 C-10.01 37 -9.02 37 -8 37 C-8 36.34 -8 35.68 -8 35 C-9.98 34.34 -11.96 33.68 -14 33 C-14.66 34.32 -15.32 35.64 -16 37 C-16.99 37 -17.98 37 -19 37 C-21.23246808 37.44649362 -23.19948618 38.08087278 -25.3125 38.9375 C-30.42138118 40.95729023 -35.57167956 42.20561164 -41 43 C-41 43.66 -41 44.32 -41 45 C-40.38253906 44.97679687 -39.76507813 44.95359375 -39.12890625 44.9296875 C-33.12117697 44.80166892 -27.79750618 45.43159253 -22 47 C-25.72426181 48.2414206 -29.08351897 48.01823389 -32.94921875 47.87890625 C-33.72183548 47.85529526 -34.49445221 47.83168427 -35.29048157 47.80735779 C-37.7563464 47.73083079 -40.22188846 47.64675953 -42.6875 47.5625 C-44.36001029 47.50926832 -46.03253629 47.45652799 -47.70507812 47.40429688 C-51.80358952 47.27523053 -55.90182752 47.13939792 -60 47 C-52.23529412 41 -52.23529412 41 -48 41 C-48 40.34 -48 39.68 -48 39 C-46.93458984 38.80083984 -46.93458984 38.80083984 -45.84765625 38.59765625 C-44.92855469 38.42105469 -44.00945312 38.24445313 -43.0625 38.0625 C-42.14597656 37.88847656 -41.22945313 37.71445313 -40.28515625 37.53515625 C-38.04710156 37.22285012 -38.04710156 37.22285012 -37 36 C-35.906875 35.938125 -34.81375 35.87625 -33.6875 35.8125 C-27.55369103 35.09022177 -22.06897123 32.45576923 -17 29 C-15.21774007 26.57185296 -14.71331242 24.9721351 -14 22 C-14.66 21.34 -15.32 20.68 -16 20 C-16 19.01 -16 18.02 -16 17 C-18.23019727 17.28367868 -20.45913454 17.57727388 -22.6875 17.875 C-24.54955078 18.11863281 -24.54955078 18.11863281 -26.44921875 18.3671875 C-29.59009915 18.92694836 -32.08041811 19.77748956 -35 21 C-35.886875 20.979375 -36.77375 20.95875 -37.6875 20.9375 C-38.450625 20.958125 -39.21375 20.97875 -40 21 C-40.66 21.99 -41.32 22.98 -42 24 C-43.32 23.67 -44.64 23.34 -46 23 C-46 22.34 -46 21.68 -46 21 C-53.97159119 21.3246856 -60.63809243 21.92138411 -68 25 C-71 25.1875 -71 25.1875 -73 25 C-66.28888364 18.28888364 -50.98708729 18.23263052 -42.125 17.0625 C-20.84372656 14.75666895 -20.84372656 14.75666895 -3 4 C-2.50242187 3.27941406 -2.00484375 2.55882812 -1.4921875 1.81640625 C-0.99976563 1.21699219 -0.50734375 0.61757813 0 0 Z " fill="#E47078" transform="translate(304,55)"/>
<path d="M0 0 C11.71187493 1.70055327 23.29296704 17.97898288 30.08984375 26.921875 C39.95309238 40.39200761 49.14139287 56.42007866 52 73 C51.01 72.505 51.01 72.505 50 72 C50 71.34 50 70.68 50 70 C49.34 70 48.68 70 48 70 C45 64.25 45 64.25 45 62 C44.34 62 43.68 62 43 62 C42.34 61.175 41.68 60.35 41 59.5 C34.92205182 51.9204411 25.67800529 45.33900264 17 41 C17 40.34 17 39.68 17 39 C16.34 39 15.68 39 15 39 C15 38.34 15 37.68 15 37 C15.99 37.33 16.98 37.66 18 38 C18 38.66 18 39.32 18 40 C19.4540625 40.185625 19.4540625 40.185625 20.9375 40.375 C21.948125 40.58125 22.95875 40.7875 24 41 C24.33 41.66 24.66 42.32 25 43 C26.98 42.505 26.98 42.505 29 42 C29 42.99 29 43.98 29 45 C29.66 45 30.32 45 31 45 C31 45.66 31 46.32 31 47 C31.99 46.505 31.99 46.505 33 46 C31.95125002 43.37812506 31.35068687 42.20628639 28.875 40.75 C28.25625 40.5025 27.6375 40.255 27 40 C27 38.68 27 37.36 27 36 C25.65847193 34.39205979 25.65847193 34.39205979 23.8125 33.0625 C20.66429844 30.54266932 17.81738555 27.8935311 15 25 C14.236875 24.236875 13.47375 23.47375 12.6875 22.6875 C12.130625 22.130625 11.57375 21.57375 11 21 C15 21 15 21 17.25 23 C17.8275 23.66 18.405 24.32 19 25 C18.43260132 20.87026372 18.43260132 20.87026372 17 17 C14.47266765 16.34444881 14.47266765 16.34444881 12 16 C11.67 13.69 11.34 11.38 11 9 C8.36 8.67 5.72 8.34 3 8 C2.690625 7.05125 2.38125 6.1025 2.0625 5.125 C1.12605258 2.13919592 1.12605258 2.13919592 0 0 Z " fill="#E75A6E" transform="translate(325,104)"/>
<path d="M0 0 C5.49949826 1.25737696 10.53380008 2.84026389 15.6875 5.125 C16.71145874 5.57588989 16.71145874 5.57588989 17.75610352 6.03588867 C35.54562391 14.09124782 35.54562391 14.09124782 38 19 C34.62537285 18.45276317 32.91765 17.9451 30 16 C30 16.66 30 17.32 30 18 C28.35 18 26.7 18 25 18 C25.33 16.68 25.66 15.36 26 14 C21.72636097 10.46319528 17.97959504 10.80167949 12.71875 11.08984375 C9.733734 10.99120098 7.69044497 10.25261659 5 9 C5 8.34 5 7.68 5 7 C5.99 7 6.98 7 8 7 C8 6.34 8 5.68 8 5 C6.02 4.34 4.04 3.68 2 3 C1.34 4.32 0.68 5.64 0 7 C-0.99 7 -1.98 7 -3 7 C-5.23246808 7.44649362 -7.19948618 8.08087278 -9.3125 8.9375 C-14.42138118 10.95729023 -19.57167956 12.20561164 -25 13 C-25 13.66 -25 14.32 -25 15 C-24.07380859 14.96519531 -24.07380859 14.96519531 -23.12890625 14.9296875 C-17.12117697 14.80166892 -11.79750618 15.43159253 -6 17 C-9.72426181 18.2414206 -13.08351897 18.01823389 -16.94921875 17.87890625 C-17.72183548 17.85529526 -18.49445221 17.83168427 -19.29048157 17.80735779 C-21.7563464 17.73083079 -24.22188846 17.64675953 -26.6875 17.5625 C-28.36001029 17.50926832 -30.03253629 17.45652799 -31.70507812 17.40429688 C-35.80358952 17.27523053 -39.90182752 17.13939792 -44 17 C-37.07652098 11.72488106 -30.43083548 10.02451129 -22 8.375 C-20.93265625 8.1584375 -19.8653125 7.941875 -18.765625 7.71875 C-13.85477365 6.7292501 -8.94450074 5.80676312 -4 5 C-4 4.34 -4 3.68 -4 3 C-2.68 2.67 -1.36 2.34 0 2 C0 1.34 0 0.68 0 0 Z " fill="#EB9F93" transform="translate(288,85)"/>
<path d="M0 0 C1.32 0.33 2.64 0.66 4 1 C-4.34841753 7.37889649 -13.0484734 12.95723985 -22.125 18.25 C-23.11306641 18.82766113 -24.10113281 19.40532227 -25.11914062 20.00048828 C-28.06291245 21.69885565 -31.02360019 23.35952596 -34 25 C-35.04510742 25.57943359 -36.09021484 26.15886719 -37.16699219 26.75585938 C-43.43492421 30.08393035 -48.02695448 32.49495769 -55.15380859 30.35253906 C-57.5360741 29.51962105 -59.85715821 28.59325413 -62.1875 27.625 C-62.98091797 27.30789063 -63.77433594 26.99078125 -64.59179688 26.6640625 C-72.22278798 23.58860009 -72.22278798 23.58860009 -75 22 C-75.75 19.875 -75.75 19.875 -76 18 C-72.625 17.375 -72.625 17.375 -69 17 C-68.34 17.66 -67.68 18.32 -67 19 C-67.66 19.33 -68.32 19.66 -69 20 C-68.34 20.33 -67.68 20.66 -67 21 C-67 21.66 -67 22.32 -67 23 C-65.576875 23.2165625 -65.576875 23.2165625 -64.125 23.4375 C-61 24 -61 24 -59 25 C-59 25.66 -59 26.32 -59 27 C-58.34 27 -57.68 27 -57 27 C-56.67 26.34 -56.34 25.68 -56 25 C-54.33388095 24.957279 -52.66617115 24.95936168 -51 25 C-50.67 25.33 -50.34 25.66 -50 26 C-45.60549251 25.56054925 -41.31669828 24.94427775 -37 24 C-37 23.34 -37 22.68 -37 22 C-36.01 22 -35.02 22 -34 22 C-33.67 20.68 -33.34 19.36 -33 18 C-32.38511719 17.92523438 -31.77023437 17.85046875 -31.13671875 17.7734375 C-28.62524452 17.36487231 -26.37891772 16.91107487 -24 16 C-21.85334283 13.04765553 -21.85334283 13.04765553 -21 10 C-20.01 10.66 -19.02 11.32 -18 12 C-17.278125 11.525625 -16.55625 11.05125 -15.8125 10.5625 C-13.10524774 9.05847097 -11.03805725 8.43400818 -8 8 C-8 7.34 -8 6.68 -8 6 C-6.02 5.34 -4.04 4.68 -2 4 C-2 3.34 -2 2.68 -2 2 C-1.34 2 -0.68 2 0 2 C0 1.34 0 0.68 0 0 Z " fill="#A0325D" transform="translate(299,287)"/>
<path d="M0 0 C6.41139658 1.15279037 11.84123809 3.11218337 17.6875 5.9375 C36.94090238 14.7214829 59.60741256 16.23574988 80 10 C80.93585938 9.71382812 81.87171875 9.42765625 82.8359375 9.1328125 C84.90484813 8.46439522 86.95566811 7.74018913 89 7 C89 7.66 89 8.32 89 9 C86.81890048 10.01643473 84.63183538 11.01288256 82.4375 12 C81.82841797 12.28617188 81.21933594 12.57234375 80.59179688 12.8671875 C76.22576975 14.807644 72.74919505 15.29338657 68 15 C67.67 15.66 67.34 16.32 67 17 C66.67 16.67 66.34 16.34 66 16 C64.36286853 15.98332326 62.72489931 16.03700518 61.08984375 16.12109375 C60.10048828 16.16943359 59.11113281 16.21777344 58.09179688 16.26757812 C57.05087891 16.32365234 56.00996094 16.37972656 54.9375 16.4375 C53.37032227 16.51581055 53.37032227 16.51581055 51.77148438 16.59570312 C49.18071764 16.72583296 46.59029334 16.86081158 44 17 C44 17.99 44 18.98 44 20 C42.68 19.67 41.36 19.34 40 19 C40 18.34 40 17.68 40 17 C39.34 17 38.68 17 38 17 C38 16.34 38 15.68 38 15 C37.38511719 14.93941406 36.77023438 14.87882813 36.13671875 14.81640625 C35.32847656 14.73261719 34.52023438 14.64882812 33.6875 14.5625 C32.88699219 14.48128906 32.08648437 14.40007812 31.26171875 14.31640625 C29 14 29 14 26 13 C25.030625 13 24.06125 13 23.0625 13 C20.41842856 13 18.52053583 12.63013396 16 12 C15.01 12.495 15.01 12.495 14 13 C11.99199544 12.71887936 9.98985949 12.38932033 8 12 C8 9.69 8 7.38 8 5 C5.36 4.34 2.72 3.68 0 3 C0 2.01 0 1.02 0 0 Z " fill="#A3315D" transform="translate(168,235)"/>
<path d="M0 0 C0.6875 1.6875 0.6875 1.6875 1 4 C-0.25 6.6875 -0.25 6.6875 -2 9 C-2.99 9.33 -3.98 9.66 -5 10 C-5.70674629 11.31252882 -6.36184656 12.65278717 -7 14 C-8.6102976 16.37467937 -10.29944634 18.68932404 -12 21 C-11.34 21.33 -10.68 21.66 -10 22 C-10.36439583 24.64186979 -10.88295589 25.86995098 -12.6875 27.875 C-15 29 -15 29 -18.25 28.1875 C-19.1575 27.795625 -20.065 27.40375 -21 27 C-20.34 25.68 -19.68 24.36 -19 23 C-18.34 23 -17.68 23 -17 23 C-16.67 22.34 -16.34 21.68 -16 21 C-17.32 20.67 -18.64 20.34 -20 20 C-20 19.01 -20 18.02 -20 17 C-19.030625 16.608125 -18.06125 16.21625 -17.0625 15.8125 C-13.77823609 14.32405113 -13.77823609 14.32405113 -13.125 11.3125 C-13.08375 10.549375 -13.0425 9.78625 -13 9 C-12.34 9 -11.68 9 -11 9 C-10.67 7.35 -10.34 5.7 -10 4 C-11.65 4.66 -13.3 5.32 -15 6 C-15.66 5.34 -16.32 4.68 -17 4 C-5.47835991 -1.92482916 -5.47835991 -1.92482916 0 0 Z " fill="#F13F63" transform="translate(230,65)"/>
<path d="M0 0 C10.12261792 4.03536795 19.62197304 20.37102659 24 30 C24 30.66 24 31.32 24 32 C24.99 32 25.98 32 27 32 C27.99 35.63 28.98 39.26 30 43 C29.01 42.505 29.01 42.505 28 42 C28 41.34 28 40.68 28 40 C27.34 40 26.68 40 26 40 C23 34.25 23 34.25 23 32 C22.34 32 21.68 32 21 32 C20.34 31.175 19.68 30.35 19 29.5 C12.92205182 21.9204411 3.67800529 15.33900264 -5 11 C-5 10.34 -5 9.68 -5 9 C-5.66 9 -6.32 9 -7 9 C-7 8.34 -7 7.68 -7 7 C-6.01 7.33 -5.02 7.66 -4 8 C-4 8.66 -4 9.32 -4 10 C-3.030625 10.12375 -2.06125 10.2475 -1.0625 10.375 C-0.051875 10.58125 0.95875 10.7875 2 11 C2.33 11.66 2.66 12.32 3 13 C4.32 12.67 5.64 12.34 7 12 C7 12.99 7 13.98 7 15 C7.66 15 8.32 15 9 15 C9 15.66 9 16.32 9 17 C9.66 16.67 10.32 16.34 11 16 C9.95125002 13.37812506 9.35068687 12.20628639 6.875 10.75 C6.25625 10.5025 5.6375 10.255 5 10 C5 8.68 5 7.36 5 6 C2.56249975 3.31232422 2.56249975 3.31232422 0 1 C0 0.67 0 0.34 0 0 Z " fill="#F08285" transform="translate(347,134)"/>
<path d="M0 0 C0.99 0.66 1.98 1.32 3 2 C2.43628586 5.26954202 1.50037734 6.82575883 -1 9 C0.65 8.67 2.3 8.34 4 8 C4 8.66 4 9.32 4 10 C7.63 8.68 11.26 7.36 15 6 C14.67 7.32 14.34 8.64 14 10 C7.78544425 13.22236224 2.78561149 13 -4 13 C-4.33 12.34 -4.66 11.68 -5 11 C-5.721875 11.309375 -6.44375 11.61875 -7.1875 11.9375 C-10 13 -10 13 -12.6875 13.375 C-13.450625 13.58125 -14.21375 13.7875 -15 14 C-15.309375 14.61875 -15.61875 15.2375 -15.9375 15.875 C-17.56116778 19.12233556 -19.66215611 19.7804032 -23 21 C-26.375 20.6875 -26.375 20.6875 -29 20 C-26.33615204 17.89537972 -23.74158029 16.33965662 -20.6875 14.875 C-15.37910357 12.01866086 -12.3348062 7.92178792 -9 3 C-8.4225 3.33 -7.845 3.66 -7.25 4 C-4.80116138 5.27075898 -4.80116138 5.27075898 -1 5 C-0.67 3.35 -0.34 1.7 0 0 Z " fill="#EF305C" transform="translate(177,107)"/>
<path d="M0 0 C-1.23566231 3.70698694 -2.47726371 4.25403671 -5.6875 6.375 C-8.77447858 8.44768562 -11.67950642 10.50666237 -14.4375 13 C-15.283125 13.66 -16.12875 14.32 -17 15 C-17.99 14.67 -18.98 14.34 -20 14 C-19.34 12.02 -18.68 10.04 -18 8 C-19.11375 8.680625 -20.2275 9.36125 -21.375 10.0625 C-23.2734375 11.22265625 -23.2734375 11.22265625 -25 12 C-25.66 11.67 -26.32 11.34 -27 11 C-26.67 10.01 -26.34 9.02 -26 8 C-27.98 8 -29.96 8 -32 8 C-29.78715595 5.78715595 -28.75572946 5.49798062 -25.7890625 4.74609375 C-24.95632812 4.53146484 -24.12359375 4.31683594 -23.265625 4.09570312 C-22.39421875 3.87849609 -21.5228125 3.66128906 -20.625 3.4375 C-19.76132813 3.21642578 -18.89765625 2.99535156 -18.0078125 2.76757812 C-15.67355524 2.17140594 -13.33746605 1.58344459 -11 1 C-9.98752197 0.71974976 -9.98752197 0.71974976 -8.95458984 0.43383789 C-5.97526908 -0.22744777 -3.03806976 -0.05842442 0 0 Z " fill="#E05C7B" transform="translate(266,52)"/>
<path d="M0 0 C0.66 0 1.32 0 2 0 C2.45894807 1.52064794 2.91712214 3.04152948 3.375 4.5625 C3.65085937 5.47257813 3.92671875 6.38265625 4.2109375 7.3203125 C4.85815164 9.51827735 5.43777524 11.71718866 6 13.9375 C6.96667148 16.89793142 7.51007646 18.20725505 10 20 C10.99 20.33 11.98 20.66 13 21 C13.33 21.66 13.66 22.32 14 23 C14.99 23 15.98 23 17 23 C17 21.68 17 20.36 17 19 C20 17 20 17 22 16 C21.34 14.35 20.68 12.7 20 11 C25.69406067 9.98772255 30.27778503 10.13626944 36 11 C35.34 11.33 34.68 11.66 34 12 C34 12.66 34 13.32 34 14 C33.19175781 14.35191406 32.38351563 14.70382813 31.55078125 15.06640625 C24.83430055 18.16943654 20.64479174 20.49144332 17 27 C12.1254002 26.03146598 9.25029315 23.69764532 6 20 C1.81450143 13.46988953 -0.90051026 7.80442227 0 0 Z " fill="#CF4265" transform="translate(117,134)"/>
<path d="M0 0 C0.66 0 1.32 0 2 0 C2.49628906 1.14855469 2.99257812 2.29710937 3.50390625 3.48046875 C7.2623024 12.0965989 11.14506747 20.44396813 15.84765625 28.59375 C16.22792969 29.3878125 16.60820313 30.181875 17 31 C16.67 31.66 16.34 32.32 16 33 C15.01 32.34 14.02 31.68 13 31 C12.01 31 11.02 31 10 31 C9.01 31 8.02 31 7 31 C5.82041697 26.9619897 4.65864225 22.91906406 3.5 18.875 C3.16613281 17.73289063 2.83226563 16.59078125 2.48828125 15.4140625 C2.01455078 13.75117188 2.01455078 13.75117188 1.53125 12.0546875 C1.23798828 11.03874512 0.94472656 10.02280273 0.64257812 8.97607422 C-0.02255964 5.89551596 -0.11468487 3.14154638 0 0 Z " fill="#953861" transform="translate(106,149)"/>
<path d="M0 0 C1.65 0 3.3 0 5 0 C3.68 0.33 2.36 0.66 1 1 C1 2.32 1 3.64 1 5 C4.0745356 4.2236068 4.0745356 4.2236068 6 2 C5.94199219 2.90363281 5.88398438 3.80726563 5.82421875 4.73828125 C5.77910156 5.91777344 5.73398438 7.09726563 5.6875 8.3125 C5.62949219 9.48425781 5.57148438 10.65601563 5.51171875 11.86328125 C5.67195697 15.17453613 5.67195697 15.17453613 8.39453125 16.98046875 C9.25433594 17.31691406 10.11414063 17.65335938 11 18 C11.66 17.67 12.32 17.34 13 17 C16.20395416 17 18.09399739 17.74335022 21 19 C21 17.35 21 15.7 21 14 C22.32 13.67 23.64 13.34 25 13 C23.31326082 17.49797113 21.18326108 21.72886302 19 26 C15.65667455 26.38875877 14.29347073 26.19941539 11.46484375 24.27734375 C0.33922481 13.97711849 0.33922481 13.97711849 -0.2265625 7.34375 C-0.24733096 4.87922584 -0.17800123 2.45740591 0 0 Z " fill="#E4355E" transform="translate(154,167)"/>
<path d="M0 0 C1 3 1 3 0.0625 5 C-0.4634375 5.99 -0.4634375 5.99 -1 7 C-1 7.99 -1 8.98 -1 10 C-1.99 10 -2.98 10 -4 10 C-8.28449594 11.87446698 -11.10752221 13.63274355 -13 18 C-13.70125 17.855625 -14.4025 17.71125 -15.125 17.5625 C-18.58095019 18.08840546 -18.94279278 18.79460805 -21.0625 21.4375 C-21.52785156 22.07558594 -21.99320313 22.71367187 -22.47265625 23.37109375 C-24.31080736 25.33147486 -25.36425053 25.64624157 -28 26 C-29.32 26 -30.64 26 -32 26 C-32 24.68 -32 23.36 -32 22 C-30.96166016 21.55914062 -30.96166016 21.55914062 -29.90234375 21.109375 C-21.05626704 17.05346631 -14.0389284 11.58425884 -6.62548828 5.35839844 C-4.44534954 3.53648615 -2.22590709 1.76552023 0 0 Z " fill="#E03B63" transform="translate(192,142)"/>
<path d="M0 0 C2.30715878 2.30715878 2.9336288 3.91853979 3.1328125 7.1640625 C3.11474984 12.85379954 2.72824315 18.35611562 2 24 C1.34 24 0.68 24 0 24 C0.66 26.64 1.32 29.28 2 32 C1.34 32 0.68 32 0 32 C0 32.99 0 33.98 0 35 C-2.31 35.99 -4.62 36.98 -7 38 C-7 39.98 -7 41.96 -7 44 C-7.9075 43.9175 -8.815 43.835 -9.75 43.75 C-13.10041408 43.68975201 -13.10041408 43.68975201 -15.375 46 C-15.91125 46.66 -16.4475 47.32 -17 48 C-17.66 47.67 -18.32 47.34 -19 47 C-18.35933594 46.35675781 -17.71867187 45.71351563 -17.05859375 45.05078125 C-4.87044265 32.31770536 0.33086201 20.33318598 0.0703125 2.74609375 C0.04710937 1.83988281 0.02390625 0.93367187 0 0 Z " fill="#B8315A" transform="translate(286,187)"/>
<path d="M0 0 C0.99 0.66 1.98 1.32 3 2 C3 2.66 3 3.32 3 4 C3.99 4.33 4.98 4.66 6 5 C5.01 5.495 5.01 5.495 4 6 C4 6.66 4 7.32 4 8 C4.33 8.33 4.66 8.66 5 9 C5 9.99 5 10.98 5 12 C4.4225 12.12375 3.845 12.2475 3.25 12.375 C0.97664233 13.00648824 -0.9253529 13.88858191 -3 15 C-3 11.77018017 -2.18469748 9.96174371 -1 7 C-1 6.01 -1 5.02 -1 4 C-1.5347998 4.30292969 -2.06959961 4.60585937 -2.62060547 4.91796875 C-5.03627792 6.28305207 -7.45556735 7.6415932 -9.875 9 C-10.71675781 9.47695312 -11.55851563 9.95390625 -12.42578125 10.4453125 C-13.63427734 11.12207031 -13.63427734 11.12207031 -14.8671875 11.8125 C-15.61081543 12.23144531 -16.35444336 12.65039062 -17.12060547 13.08203125 C-19 14 -19 14 -21 14 C-21.66 12.35 -22.32 10.7 -23 9 C-22.01 8.34 -21.02 7.68 -20 7 C-19.01 7.33 -18.02 7.66 -17 8 C-14.77260299 6.93798263 -14.77260299 6.93798263 -12 5 C-12 4.34 -12 3.68 -12 3 C-11.21753906 2.86722656 -10.43507812 2.73445313 -9.62890625 2.59765625 C-8.61699219 2.42105469 -7.60507813 2.24445313 -6.5625 2.0625 C-5.55316406 1.88847656 -4.54382813 1.71445313 -3.50390625 1.53515625 C-1.0712562 1.25248903 -1.0712562 1.25248903 0 0 Z " fill="#E6355F" transform="translate(202,95)"/>
<path d="M0 0 C0 0.33 0 0.66 0 1 C-4.33085971 2.29925791 -8.51474352 3.343621 -13 4 C-13 4.66 -13 5.32 -13 6 C-12.07380859 5.96519531 -12.07380859 5.96519531 -11.12890625 5.9296875 C-5.12117697 5.80166892 0.20249382 6.43159253 6 8 C2.27573819 9.2414206 -1.08351897 9.01823389 -4.94921875 8.87890625 C-5.72183548 8.85529526 -6.49445221 8.83168427 -7.29048157 8.80735779 C-9.7563464 8.73083079 -12.22188846 8.64675953 -14.6875 8.5625 C-16.36001029 8.50926832 -18.03253629 8.45652799 -19.70507812 8.40429688 C-23.80358952 8.27523053 -27.90182752 8.13939792 -32 8 C-22.08707066 0.42820929 -12.15792781 -0.37601839 0 0 Z " fill="#EFB09F" transform="translate(276,94)"/>
<path d="M0 0 C1.65 0.33 3.3 0.66 5 1 C5 2.65 5 4.3 5 6 C5.99 6 6.98 6 8 6 C12.07744977 11.64569968 12.11216216 16.27027067 12 23 C11.443125 22.29875 10.88625 21.5975 10.3125 20.875 C9.549375 19.92625 8.78625 18.9775 8 18 C7.278125 17.030625 6.55625 16.06125 5.8125 15.0625 C3.04580598 11.71652942 -0.35556943 9.58273642 -4.01171875 7.296875 C-6 6 -6 6 -8 4 C-7.236875 4.0825 -6.47375 4.165 -5.6875 4.25 C-2.85416667 4.29166667 -2.85416667 4.29166667 -1.1875 2 C-0.795625 1.34 -0.40375 0.68 0 0 Z " fill="#F05670" transform="translate(272,158)"/>
<path d="M0 0 C0.99 0 1.98 0 3 0 C4.56123662 2.14323607 5.87892038 4.20722584 7.1875 6.5 C7.57607178 7.16547852 7.96464355 7.83095703 8.36499023 8.51660156 C11.24510772 13.51728357 13.95211021 18.60392156 16.5625 23.75 C17.08203247 24.76803711 17.08203247 24.76803711 17.61206055 25.80664062 C19.05775414 28.72687512 20 30.69739444 20 34 C19.34 34 18.68 34 18 34 C17.72027344 33.46632812 17.44054687 32.93265625 17.15234375 32.3828125 C13.20669189 25.04973605 8.77754054 18.01266295 3.1875 11.8125 C0.68670074 8.59718667 -0.23444013 5.98091135 -1 2 C-0.67 1.34 -0.34 0.68 0 0 Z " fill="#D3526A" transform="translate(353,132)"/>
<path d="M0 0 C-0.99 0.33 -1.98 0.66 -3 1 C-3.07089844 1.75667969 -3.14179688 2.51335938 -3.21484375 3.29296875 C-4.224286 6.77328458 -5.5086479 7.46298394 -8.5625 9.3125 C-9.80193359 10.08013672 -9.80193359 10.08013672 -11.06640625 10.86328125 C-11.70449219 11.23839844 -12.34257812 11.61351563 -13 12 C-13 10.02 -13 8.04 -13 6 C-18.15803814 5.5754054 -21.5763111 6.94100523 -26 9.375 C-30.22692718 11.64535827 -34.32765779 13.79209335 -39 15 C-39.99 14.67 -40.98 14.34 -42 14 C-12.275201 -0.29939515 -12.275201 -0.29939515 0 0 Z " fill="#E64E6B" transform="translate(243,59)"/>
<path d="M0 0 C2.6875 0.3125 2.6875 0.3125 5 1 C5.33 1.99 5.66 2.98 6 4 C5.34 4 4.68 4 4 4 C4 4.66 4 5.32 4 6 C5.4540625 6.4021875 5.4540625 6.4021875 6.9375 6.8125 C7.948125 7.204375 8.95875 7.59625 10 8 C10.33 8.99 10.66 9.98 11 11 C11.99 11.33 12.98 11.66 14 12 C14.33 12.99 14.66 13.98 15 15 C17.50447516 16.21869929 17.50447516 16.21869929 20 17 C20 17.66 20 18.32 20 19 C20.66 19.33 21.32 19.66 22 20 C21.67 21.65 21.34 23.3 21 25 C15.125 21.375 15.125 21.375 14 18 C13.113125 17.46375 12.22625 16.9275 11.3125 16.375 C7.53492817 14.06146319 5.75671072 10.80446335 3.58984375 7.0234375 C1.65381837 4.5594052 -0.04931528 3.92550988 -3 3 C-1.8125 1.4375 -1.8125 1.4375 0 0 Z " fill="#9A2C60" transform="translate(154,249)"/>
<path d="M0 0 C4.81595671 0.09530411 9.63151055 0.20172333 14.44702148 0.31738281 C16.07684032 0.35508865 17.70672606 0.39002914 19.33666992 0.421875 C28.01521726 0.59335602 36.62537983 0.92624819 45.25390625 1.9140625 C46.27157326 2.02818985 46.27157326 2.02818985 47.30979919 2.1446228 C51.72357927 2.69585946 55.80350368 3.55890006 60 5 C60.495 5.99 60.495 5.99 61 7 C61.99 7.33 62.98 7.66 64 8 C60.14529794 9.28490069 57.96052225 8.54371946 54 7.6875 C52.6381337 7.4018052 51.27615364 7.11665215 49.9140625 6.83203125 C49.24536133 6.68975098 48.57666016 6.5474707 47.88769531 6.40087891 C32.07027552 3.04182519 16.10899625 2.67455202 0 2 C0 1.34 0 0.68 0 0 Z " fill="#E87C7E" transform="translate(243,101)"/>
<path d="M0 0 C0 0.66 0 1.32 0 2 C-0.94359375 2.44988281 -1.8871875 2.89976562 -2.859375 3.36328125 C-12.30437417 8.03699341 -19.60847222 13.51212084 -27 21 C-28 18 -28 18 -26.875 15.5625 C-24.84594126 12.78945305 -22.81954154 10.9519903 -20 9 C-19.34 9 -18.68 9 -18 9 C-18.33 7.35 -18.66 5.7 -19 4 C-16.3694405 2.5907717 -13.95899183 1.47725675 -11 1 C-10.01 1.33 -9.02 1.66 -8 2 C-3.86666667 0 -3.86666667 0 0 0 Z M-12 3 C-12 3.66 -12 4.32 -12 5 C-11.34 5 -10.68 5 -10 5 C-10 4.34 -10 3.68 -10 3 C-10.66 3 -11.32 3 -12 3 Z " fill="#EC315C" transform="translate(207,159)"/>
<path d="M0 0 C1.32 0.33 2.64 0.66 4 1 C-3.90427454 6.91511936 -12.01454557 12.40908426 -20.4375 17.5625 C-21.27700195 18.08682617 -22.11650391 18.61115234 -22.98144531 19.15136719 C-27.74551283 22.02195028 -31.42138407 23.69216251 -37 24 C-37 23.34 -37 22.68 -37 22 C-36.01 22 -35.02 22 -34 22 C-33.67 20.68 -33.34 19.36 -33 18 C-32.38511719 17.92523438 -31.77023437 17.85046875 -31.13671875 17.7734375 C-28.62524452 17.36487231 -26.37891772 16.91107487 -24 16 C-21.85334283 13.04765553 -21.85334283 13.04765553 -21 10 C-20.01 10.66 -19.02 11.32 -18 12 C-17.278125 11.525625 -16.55625 11.05125 -15.8125 10.5625 C-13.10524774 9.05847097 -11.03805725 8.43400818 -8 8 C-8 7.34 -8 6.68 -8 6 C-6.02 5.34 -4.04 4.68 -2 4 C-2 3.34 -2 2.68 -2 2 C-1.34 2 -0.68 2 0 2 C0 1.34 0 0.68 0 0 Z " fill="#B1325A" transform="translate(299,287)"/>
<path d="M0 0 C1.65 0 3.3 0 5 0 C4.67 0.99 4.34 1.98 4 3 C4.33 2.67 4.66 2.34 5 2 C6.51165654 1.60851239 8.03469632 1.26027543 9.5625 0.9375 C10.38878906 0.76089844 11.21507812 0.58429688 12.06640625 0.40234375 C13.02353516 0.20318359 13.02353516 0.20318359 14 0 C14.33 0.66 14.66 1.32 15 2 C15.66 1.855625 16.32 1.71125 17 1.5625 C31.98029557 -1.24630542 31.98029557 -1.24630542 39 1 C38.67 3.31 38.34 5.62 38 8 C37.34 8 36.68 8 36 8 C35.505 5.525 35.505 5.525 35 3 C28.28737804 2.80729315 21.89079388 3.56098329 15.25 4.5 C13.21386443 4.78357723 11.17741601 5.06491942 9.140625 5.34375 C8.24891602 5.46943359 7.35720703 5.59511719 6.43847656 5.72460938 C4 6 4 6 0 6 C0 4.02 0 2.04 0 0 Z " fill="#ED315C" transform="translate(161,136)"/>
<path d="M0 0 C-2.74160552 1.25330538 -4.64514865 2.00825236 -7.6875 1.9375 C-8.8321875 1.9684375 -8.8321875 1.9684375 -10 2 C-10.66 2.99 -11.32 3.98 -12 5 C-13.32 4.67 -14.64 4.34 -16 4 C-16 3.34 -16 2.68 -16 2 C-23.97159119 2.3246856 -30.63809243 2.92138411 -38 6 C-41 6.1875 -41 6.1875 -43 6 C-35.78978751 -1.21021249 -8.19481338 -5.24468056 0 0 Z " fill="#D95F73" transform="translate(274,74)"/>
<path d="M0 0 C0.99 0 1.98 0 3 0 C2.45276317 3.37462715 1.9451 5.08235 0 8 C0 7.01 0 6.02 0 5 C-0.66 5 -1.32 5 -2 5 C-2 5.66 -2 6.32 -2 7 C-4.65856209 9.50217609 -6.68502388 10.90118396 -10.1875 12 C-13.47979746 12.80472565 -13.47979746 12.80472565 -15 17 C-24.405 17.495 -24.405 17.495 -34 18 C-34 17.34 -34 16.68 -34 16 C-32.87722656 15.75765625 -31.75445312 15.5153125 -30.59765625 15.265625 C-13.0129531 11.63001168 -13.0129531 11.63001168 0 0 Z " fill="#DB6E7C" transform="translate(304,55)"/>
<path d="M0 0 C0.33 2.31 0.66 4.62 1 7 C1.66 7 2.32 7 3 7 C2.63560417 9.64186979 2.11704411 10.86995098 0.3125 12.875 C-2 14 -2 14 -5.25 13.1875 C-6.61125 12.5996875 -6.61125 12.5996875 -8 12 C-7.34 10.68 -6.68 9.36 -6 8 C-5.34 8 -4.68 8 -4 8 C-3.67 7.34 -3.34 6.68 -3 6 C-4.32 5.67 -5.64 5.34 -7 5 C-7 4.01 -7 3.02 -7 2 C-1.125 0 -1.125 0 0 0 Z " fill="#F4345E" transform="translate(217,80)"/>
<path d="M0 0 C2.95393987 0.68061183 2.95393987 0.68061183 6.5 -0.0625 C7.593125 -0.206875 8.68625 -0.35125 9.8125 -0.5 C10.4725 0.16 11.1325 0.82 11.8125 1.5 C11.1525 1.5 10.4925 1.5 9.8125 1.5 C9.8125 2.16 9.8125 2.82 9.8125 3.5 C1.77748906 7.57877462 1.77748906 7.57877462 -2.25 7.25 C-2.889375 7.0025 -3.52875 6.755 -4.1875 6.5 C-3.5275 6.17 -2.8675 5.84 -2.1875 5.5 C-2.8475 3.85 -3.5075 2.2 -4.1875 0.5 C-2.1875 -0.5 -2.1875 -0.5 0 0 Z " fill="#E9335D" transform="translate(141.1875,144.5)"/>
<path d="M0 0 C-1.51908323 3.80199928 -3.77448786 5.77187204 -6.9375 8.3125 C-7.81277344 9.03050781 -8.68804687 9.74851562 -9.58984375 10.48828125 C-10.38519531 10.98714844 -11.18054688 11.48601562 -12 12 C-12.99 11.67 -13.98 11.34 -15 11 C-14.01 8.69 -13.02 6.38 -12 4 C-11.01 4 -10.02 4 -9 4 C-8.67 2.68 -8.34 1.36 -8 0 C-4.94736336 -0.98120464 -3.05263664 -0.98120464 0 0 Z " fill="#DF5770" transform="translate(261,55)"/>
<path d="M0 0 C0.66 0 1.32 0 2 0 C2 0.66 2 1.32 2 2 C2.99 2.33 3.98 2.66 5 3 C4.01 3.33 3.02 3.66 2 4 C2.33 5.32 2.66 6.64 3 8 C4.65 8 6.3 8 8 8 C8.33 9.65 8.66 11.3 9 13 C7.68 13.33 6.36 13.66 5 14 C4.67 13.01 4.34 12.02 4 11 C3.401875 10.87625 2.80375 10.7525 2.1875 10.625 C-1.00104544 9.71398702 -2.11621701 7.62384059 -4 5 C-3.34 3.68 -2.68 2.36 -2 1 C-1.67 1.33 -1.34 1.66 -1 2 C-0.67 1.34 -0.34 0.68 0 0 Z " fill="#F0305D" transform="translate(126,144)"/>
<path d="M0 0 C0 0.33 0 0.66 0 1 C-4.33085971 2.29925791 -8.51474352 3.343621 -13 4 C-13 4.66 -13 5.32 -13 6 C-16.96 6 -20.92 6 -25 6 C-24.67 5.01 -24.34 4.02 -24 3 C-16.30717633 -0.17377954 -8.19520586 -0.39232368 0 0 Z " fill="#EBB29B" transform="translate(276,94)"/>
<path d="M0 0 C0.495 0.99 0.495 0.99 1 2 C-1.18109952 3.01643473 -3.36816462 4.01288256 -5.5625 5 C-6.17158203 5.28617188 -6.78066406 5.57234375 -7.40820312 5.8671875 C-11.77423025 7.807644 -15.25080495 8.29338657 -20 8 C-20.33 8.66 -20.66 9.32 -21 10 C-21 9.34 -21 8.68 -21 8 C-28.59 8 -36.18 8 -44 8 C-44 7.67 -44 7.34 -44 7 C-43.11030518 6.97812622 -43.11030518 6.97812622 -42.20263672 6.95581055 C-27.49255911 6.55297022 -13.74263664 5.77190739 0 0 Z " fill="#AA3D61" transform="translate(256,242)"/>
<path d="M0 0 C-0.99 0.66 -1.98 1.32 -3 2 C-3.33 2.99 -3.66 3.98 -4 5 C-4.66 5 -5.32 5 -6 5 C-6.33 5.99 -6.66 6.98 -7 8 C-7.66 8 -8.32 8 -9 8 C-9 7.01 -9 6.02 -9 5 C-9.66 5 -10.32 5 -11 5 C-11.33 5.66 -11.66 6.32 -12 7 C-14.88511836 7.93571406 -16.36622435 8.2877684 -19.16796875 7.015625 C-19.77253906 6.68046875 -20.37710938 6.3453125 -21 6 C-18.58449673 5.02488905 -16.16704917 4.05526421 -13.74609375 3.09375 C-12.04653072 2.41682589 -10.35042428 1.73106047 -8.66015625 1.03125 C-3.33370253 -1.11123418 -3.33370253 -1.11123418 0 0 Z " fill="#EC325E" transform="translate(148,128)"/>
<path d="M0 0 C0.99 0 1.98 0 3 0 C5.41243251 2.99141631 6.23453659 5.80635894 6.9375 9.5 C7.73086807 13.56177327 9.07484985 15.97734485 12 19 C9 19 9 19 7.28125 17.3125 C3.47147709 12.36647904 0.69461918 8.03708083 -1 2 C-0.67 1.34 -0.34 0.68 0 0 Z " fill="#E4556A" transform="translate(353,132)"/>
<path d="M0 0 C2.56912948 1.21663828 5.12965377 2.44753451 7.6875 3.6875 C8.40873047 4.02716797 9.12996094 4.36683594 9.87304688 4.71679688 C14.42402322 6.94033326 17.63215682 9.20702474 21 13 C17.62537285 12.45276317 15.91765 11.9451 13 10 C13 10.66 13 11.32 13 12 C11.35 12 9.7 12 8 12 C8.33 10.68 8.66 9.36 9 8 C8.3503125 7.59007813 7.700625 7.18015625 7.03125 6.7578125 C6.1959375 6.21898438 5.360625 5.68015625 4.5 5.125 C3.6646875 4.59132813 2.829375 4.05765625 1.96875 3.5078125 C1.3190625 3.01023437 0.669375 2.51265625 0 2 C0 1.34 0 0.68 0 0 Z " fill="#D38485" transform="translate(305,91)"/>
<path d="M0 0 C4.05143406 0.57331614 6.40378712 2.68116404 9.5 5.25 C10.4384375 6.01828125 11.376875 6.7865625 12.34375 7.578125 C14.87925359 9.88990768 16.94175209 12.26214193 19 15 C17.68 15 16.36 15 15 15 C15 14.34 15 13.68 15 13 C14.34 13 13.68 13 13 13 C13 12.34 13 11.68 13 11 C12.34 11 11.68 11 11 11 C11 10.34 11 9.68 11 9 C8.36 8.67 5.72 8.34 3 8 C2.690625 7.05125 2.38125 6.1025 2.0625 5.125 C1.12605258 2.13919592 1.12605258 2.13919592 0 0 Z " fill="#D26B79" transform="translate(325,104)"/>
<path d="M0 0 C-0.25717781 5.27214518 -2.17233517 7.87129938 -5.52734375 11.6796875 C-7 13 -7 13 -9 13 C-9.125 10.625 -9.125 10.625 -9 8 C-8.34 7.34 -7.68 6.68 -7 6 C-7 5.01 -7 4.02 -7 3 C-4.68139929 -0.13011095 -4.16626119 0 0 0 Z " fill="#E3335B" transform="translate(353,233)"/>
<path d="M0 0 C0 1.32 0 2.64 0 4 C0.99 4.33 1.98 4.66 3 5 C1.3603125 5.804375 1.3603125 5.804375 -0.3125 6.625 C-4.04467844 8.72529475 -5.44260141 10.969086 -7 15 C-7.66 14.34 -8.32 13.68 -9 13 C-9 7.77474745 -6.76771346 5.06064771 -3.47265625 1.3203125 C-2 0 -2 0 0 0 Z " fill="#F0305C" transform="translate(178,90)"/>
<path d="M0 0 C1.98 0.99 1.98 0.99 4 2 C4 2.99 4 3.98 4 5 C4.66 5 5.32 5 6 5 C6.33 3.35 6.66 1.7 7 0 C8.79567975 3.25417945 9.77381863 6.46571529 10.6875 10.0625 C10.95949219 11.10535156 11.23148437 12.14820313 11.51171875 13.22265625 C12 16 12 16 11 19 C10.62488281 18.27554688 10.24976563 17.55109375 9.86328125 16.8046875 C6.97041716 11.33957901 4.05398552 6.65015986 0 2 C0 1.34 0 0.68 0 0 Z " fill="#F1627A" transform="translate(303,162)"/>
<path d="M0 0 C5.28497409 -0.44041451 5.28497409 -0.44041451 8 0 C10.5 2.5 10.5 2.5 12 5 C10.43904523 6.56095477 8.90999105 6.16961928 6.75 6.1875 C3.07542339 6.15819716 0.3150682 5.71100294 -3 4 C-3 3.34 -3 2.68 -3 2 C-2.01 2 -1.02 2 0 2 C0 1.34 0 0.68 0 0 Z " fill="#E29D93" transform="translate(296,90)"/>
<path d="M0 0 C10.22944379 0.95990579 19.61056878 2.65355706 29 7 C29.33 7.66 29.66 8.32 30 9 C22.23375619 7.28363577 14.58097076 5.41290492 7 3 C7 3.66 7 4.32 7 5 C5.68 5 4.36 5 3 5 C3 4.34 3 3.68 3 3 C2.01 2.67 1.02 2.34 0 2 C0 1.34 0 0.68 0 0 Z " fill="#ED4261" transform="translate(295,129)"/>
<path d="M0 0 C-0.33 1.32 -0.66 2.64 -1 4 C-1.61488281 4.13277344 -2.22976562 4.26554687 -2.86328125 4.40234375 C-4.07564453 4.66724609 -4.07564453 4.66724609 -5.3125 4.9375 C-6.11300781 5.11152344 -6.91351563 5.28554687 -7.73828125 5.46484375 C-10.145401 5.99886159 -10.145401 5.99886159 -13 7 C-13.99 7 -14.98 7 -16 7 C-15 4 -15 4 -12.890625 2.83203125 C-12.01921875 2.49558594 -11.1478125 2.15914063 -10.25 1.8125 C-9.38890625 1.46832031 -8.5278125 1.12414062 -7.640625 0.76953125 C-4.95129902 -0.01419245 -2.78398044 -0.14520761 0 0 Z " fill="#E3365E" transform="translate(209,73)"/>
<path d="M0 0 C1.14266516 3.35897545 0.85911331 5.30450352 -0.3125 8.625 C-0.57675781 9.40101563 -0.84101563 10.17703125 -1.11328125 10.9765625 C-2 13 -2 13 -4 15 C-5.32229189 12.35541621 -5.09677194 10.32238699 -5.0625 7.375 C-5.05347656 6.37210938 -5.04445313 5.36921875 -5.03515625 4.3359375 C-5.02355469 3.56507813 -5.01195312 2.79421875 -5 2 C-3.35 1.34 -1.7 0.68 0 0 Z " fill="#EF2E5A" transform="translate(373,186)"/>
<path d="M0 0 C2.64 0.33 5.28 0.66 8 1 C8 1.66 8 2.32 8 3 C9.98 3.99 11.96 4.98 14 6 C14 6.33 14 6.66 14 7 C10.43672942 7.08098342 7.43949858 6.85987464 4 6 C3.01 6.495 3.01 6.495 2 7 C1.01 6.34 0.02 5.68 -1 5 C-0.67 3.35 -0.34 1.7 0 0 Z " fill="#AA2A5B" transform="translate(180,241)"/>
<path d="M0 0 C1.7074998 1.28062485 3.37373596 2.61767557 5 4 C5 4.66 5 5.32 5 6 C5.66 6 6.32 6 7 6 C10 11.75 10 11.75 10 14 C10.66 14 11.32 14 12 14 C12.33 15.32 12.66 16.64 13 18 C12.4225 17.690625 11.845 17.38125 11.25 17.0625 C9.15705816 16.07416636 7.25464725 15.4831387 5 15 C5.33 14.01 5.66 13.02 6 12 C4.97746933 9.40434522 3.98953324 7.98953324 2 6 C1.34 5.34 0.68 4.68 0 4 C0 2.68 0 1.36 0 0 Z " fill="#E9405E" transform="translate(363,160)"/>
<path d="M0 0 C1.77706209 2.66559313 2.87548273 5.0280615 4 8 C4.99 8 5.98 8 7 8 C7.99 11.63 8.98 15.26 10 19 C9.34 18.67 8.68 18.34 8 18 C8 17.34 8 16.68 8 16 C7.34 16 6.68 16 6 16 C3 10.25 3 10.25 3 8 C2.34 8 1.68 8 1 8 C-0.37310707 6.70766393 -1.71034824 5.37562854 -3 4 C-2.67 3.34 -2.34 2.68 -2 2 C-1.34 2.33 -0.68 2.66 0 3 C0 2.01 0 1.02 0 0 Z " fill="#E66E7F" transform="translate(367,158)"/>
<path d="M0 0 C-1.45399296 3.83325416 -3.3080115 5.28279605 -7 7 C-9.8125 7.1875 -9.8125 7.1875 -12 7 C-12 5.68 -12 4.36 -12 3 C-10.75823305 2.29773859 -9.50614401 1.61370891 -8.25 0.9375 C-7.20585937 0.36322266 -7.20585937 0.36322266 -6.140625 -0.22265625 C-3.63859372 -1.1312406 -2.4667645 -0.88336837 0 0 Z " fill="#E8325A" transform="translate(172,161)"/>
<path d="M0 0 C0.66 0.33 1.32 0.66 2 1 C1.3503125 1.58394531 1.3503125 1.58394531 0.6875 2.1796875 C-2.90332257 5.74383652 -2.90332257 5.74383652 -4.22265625 10.48046875 C-4.11633697 12.19454302 -4.00182124 13.90812957 -3.87890625 15.62109375 C-4.08287916 19.6281744 -6.17431704 21.31560119 -9 24 C-10.69598388 20.60803223 -8.88588 17.16457864 -7.875 13.6875 C-7.57335937 12.54764648 -7.57335937 12.54764648 -7.265625 11.38476562 C-5.78843906 6.26355773 -4.08321334 3.44392237 0 0 Z " fill="#D54164" transform="translate(174,91)"/>
<path d="M0 0 C0.66 0 1.32 0 2 0 C3.37000201 2.93036877 4.71818552 5.87026914 6.0625 8.8125 C6.45244141 9.64587891 6.84238281 10.47925781 7.24414062 11.33789062 C7.60830078 12.14033203 7.97246094 12.94277344 8.34765625 13.76953125 C8.68804932 14.50792236 9.02844238 15.24631348 9.37915039 16.00708008 C10 18 10 18 9 21 C7.35 17.7 5.7 14.4 4 11 C3.01 12.485 3.01 12.485 2 14 C0.66416101 9.15758367 -0.25328119 5.06562383 0 0 Z " fill="#974C6E" transform="translate(106,149)"/>
<path d="M0 0 C0.99 0 1.98 0 3 0 C2.45276317 3.37462715 1.9451 5.08235 0 8 C0 7.01 0 6.02 0 5 C-0.66 5 -1.32 5 -2 5 C-2 5.66 -2 6.32 -2 7 C-6.06345609 11.06345609 -10.61774638 12.45216236 -16 14 C-13.89600336 10.84400504 -12.96371212 10.28981551 -9.6875 8.6875 C-6.5094772 7.01431946 -4.32176294 5.53590209 -2.125 2.6875 C-1.42375 1.800625 -0.7225 0.91375 0 0 Z " fill="#CE8E94" transform="translate(304,55)"/>
<path d="M0 0 C1 3 1 3 -0.21484375 5.91796875 C-0.78332031 6.99691406 -1.35179687 8.07585937 -1.9375 9.1875 C-2.50339844 10.27417969 -3.06929688 11.36085937 -3.65234375 12.48046875 C-4.09707031 13.31191406 -4.54179687 14.14335937 -5 15 C-5.99 15 -6.98 15 -8 15 C-8 13.02 -8 11.04 -8 9 C-6.68 8.67 -5.36 8.34 -4 8 C-4 6.35 -4 4.7 -4 3 C-3.01 2.67 -2.02 2.34 -1 2 C-0.67 1.34 -0.34 0.68 0 0 Z " fill="#D73A5F" transform="translate(368,205)"/>
<path d="M0 0 C7.1013532 0.17753383 10.91321009 4.84478372 15.5859375 9.62109375 C18.27037976 12.60811765 19.64529155 14.97997093 20 19 C19.443125 18.29875 18.88625 17.5975 18.3125 16.875 C17.549375 15.92625 16.78625 14.9775 16 14 C15.278125 13.030625 14.55625 12.06125 13.8125 11.0625 C11.04580598 7.71652942 7.64443057 5.58273642 3.98828125 3.296875 C2 2 2 2 0 0 Z " fill="#CC576D" transform="translate(264,162)"/>
<path d="M0 0 C3.96182414 1.53970893 5.89782274 4.01967637 8.5 7.3125 C9.62921875 8.72982422 9.62921875 8.72982422 10.78125 10.17578125 C11.87953125 11.57376953 11.87953125 11.57376953 13 13 C14.33222026 14.66755652 15.66518736 16.33451786 17 18 C16.67 18.66 16.34 19.32 16 20 C15.37351562 19.278125 14.74703125 18.55625 14.1015625 17.8125 C13.28429687 16.884375 12.46703125 15.95625 11.625 15 C10.81289063 14.071875 10.00078125 13.14375 9.1640625 12.1875 C8.44992187 11.465625 7.73578125 10.74375 7 10 C6.34 10 5.68 10 5 10 C5 8.68 5 7.36 5 6 C2.56249975 3.31232422 2.56249975 3.31232422 0 1 C0 0.67 0 0.34 0 0 Z " fill="#EF7F83" transform="translate(347,134)"/>
<path d="M0 0 C0.66 0.33 1.32 0.66 2 1 C-0.37191584 2.29761299 -2.74724614 3.58816317 -5.125 4.875 C-5.79015625 5.23980469 -6.4553125 5.60460937 -7.140625 5.98046875 C-10.99810772 8.06048394 -14.7222588 9.92126526 -19 11 C-19.99 10.67 -20.98 10.34 -22 10 C-18.89716979 8.51801792 -15.79251273 7.03990317 -12.6875 5.5625 C-11.80642578 5.14162109 -10.92535156 4.72074219 -10.01757812 4.28710938 C-9.17001953 3.88427734 -8.32246094 3.48144531 -7.44921875 3.06640625 C-6.27879028 2.5086853 -6.27879028 2.5086853 -5.0847168 1.93969727 C-3 1 -3 1 0 0 Z " fill="#D34D6C" transform="translate(223,63)"/>
<path d="M0 0 C3.53644012 0.68232492 6.30268991 2.12715859 9.4375 3.875 C10.36433594 4.38804687 11.29117188 4.90109375 12.24609375 5.4296875 C14.85408368 6.91679665 17.4327461 8.44380617 20 10 C19.67 10.99 19.34 11.98 19 13 C16.01584578 11.21654158 13.03858697 9.4218827 10.0625 7.625 C9.21236328 7.11710937 8.36222656 6.60921875 7.48632812 6.0859375 C6.67744141 5.59609375 5.86855469 5.10625 5.03515625 4.6015625 C4.2862915 4.15119629 3.53742676 3.70083008 2.76586914 3.23681641 C1 2 1 2 0 0 Z " fill="#89365D" transform="translate(193,290)"/>
<path d="M0 0 C0.66 0.33 1.32 0.66 2 1 C2.33 1.99 2.66 2.98 3 4 C4.29355827 5.37195574 5.62298702 6.71182656 7 8 C5.68 8.33 4.36 8.66 3 9 C3 8.34 3 7.68 3 7 C2.34 7 1.68 7 1 7 C0.67 7.66 0.34 8.32 0 9 C-0.99 8.67 -1.98 8.34 -3 8 C-3.36923077 3.44615385 -3.36923077 3.44615385 -1.5 1.1875 C-1.005 0.795625 -0.51 0.40375 0 0 Z " fill="#9F2B5C" transform="translate(147,215)"/>
<path d="M0 0 C2.625 -0.1875 2.625 -0.1875 5 0 C4.42424336 3.35250701 3.40693737 4.93818629 0.9375 7.25 C0.11572266 8.03117187 0.11572266 8.03117187 -0.72265625 8.828125 C-1.14417969 9.21484375 -1.56570313 9.6015625 -2 10 C-2.99 9.67 -3.98 9.34 -5 9 C-4.01 8.67 -3.02 8.34 -2 8 C-2.04125 7.236875 -2.0825 6.47375 -2.125 5.6875 C-2 3 -2 3 0 0 Z " fill="#E2325B" transform="translate(338,248)"/>
<path d="M0 0 C0.66 0 1.32 0 2 0 C2.20496094 0.68707031 2.40992187 1.37414062 2.62109375 2.08203125 C2.89050781 2.98308594 3.15992187 3.88414062 3.4375 4.8125 C3.83775391 6.15248047 3.83775391 6.15248047 4.24609375 7.51953125 C4.80387873 9.35473055 5.39344575 11.18033726 6 13 C5.67 13.66 5.34 14.32 5 15 C4.34 15 3.68 15 3 15 C0.31780178 9.63560356 -0.3152595 5.98993047 0 0 Z " fill="#DB3B61" transform="translate(117,134)"/>
<path d="M0 0 C2.0839403 0.11443603 4.16716493 0.24195547 6.25 0.375 C7.41015625 0.44460937 8.5703125 0.51421875 9.765625 0.5859375 C12.70694334 0.96248308 14.49949011 1.4774123 17 3 C14.13822943 4.43088528 12.06624227 3.59991697 9 3 C9 3.66 9 4.32 9 5 C9.99 5.33 10.98 5.66 12 6 C7.39146203 5.27991594 3.32762591 3.68704061 -1 2 C-0.67 1.34 -0.34 0.68 0 0 Z " fill="#F13B5F" transform="translate(249,135)"/>
<path d="M0 0 C1.46282033 0.09033353 2.92182192 0.24703491 4.375 0.4375 C6.9721428 0.77166007 9.37411693 1 12 1 C12 1.66 12 2.32 12 3 C9.29120665 4.35439668 6.99066732 4.06501451 4 4 C4 4.66 4 5.32 4 6 C2.35 6.33 0.7 6.66 -1 7 C-1.04254356 5.00045254 -1.04080783 2.99958364 -1 1 C-0.67 0.67 -0.34 0.34 0 0 Z " fill="#F32F5C" transform="translate(209,152)"/>
<path d="M0 0 C0.33 0.66 0.66 1.32 1 2 C1.66 2 2.32 2 3 2 C3 2.66 3 3.32 3 4 C3.721875 3.855625 4.44375 3.71125 5.1875 3.5625 C8 4 8 4 9.4453125 5.55859375 C10.69868893 7.33838828 11.88087302 9.13320095 13 11 C10.125 10.75 10.125 10.75 7 10 C6.30062468 8.68352881 5.63270867 7.34977849 5 6 C2.44480079 5.18828772 2.44480079 5.18828772 0 5 C-0.5625 3.0625 -0.5625 3.0625 -1 1 C-0.67 0.67 -0.34 0.34 0 0 Z " fill="#D56677" transform="translate(337,115)"/>
<path d="M0 0 C0 0.66 0 1.32 0 2 C-2.11997834 3.19733988 -4.24513676 4.38298713 -6.375 5.5625 C-6.97828125 5.90474609 -7.5815625 6.24699219 -8.203125 6.59960938 C-9.76978241 7.46127095 -11.38290862 8.23718183 -13 9 C-13.66 8.67 -14.32 8.34 -15 8 C-14.34 6.68 -13.68 5.36 -13 4 C-12.01 4.33 -11.02 4.66 -10 5 C-10 4.34 -10 3.68 -10 3 C-6.27034861 0.96564469 -4.33094958 0 0 0 Z " fill="#DA3B62" transform="translate(207,159)"/>
<path d="M0 0 C5.28 0.33 10.56 0.66 16 1 C16 1.66 16 2.32 16 3 C16.66 3.33 17.32 3.66 18 4 C13.93714243 5.63129887 10.79897816 4.29968777 6.75 3.0625 C5.48671875 2.68222656 4.2234375 2.30195312 2.921875 1.91015625 C1.95765625 1.60980469 0.9934375 1.30945313 0 1 C0 0.67 0 0.34 0 0 Z " fill="#E78280" transform="translate(272,102)"/>
<path d="M0 0 C-1 3 -1 3 -3.0625 4.1875 C-3.701875 4.455625 -4.34125 4.72375 -5 5 C-5.33 4.34 -5.66 3.68 -6 3 C-10.62 3.33 -15.24 3.66 -20 4 C-13.50426916 0.75213458 -7.22064141 -0.30726134 0 0 Z " fill="#D06F84" transform="translate(266,52)"/>
<path d="M0 0 C0 3.48961209 -0.90379374 5.11480295 -2.5 8.1875 C-2.9640625 9.08855469 -3.428125 9.98960937 -3.90625 10.91796875 C-4.2671875 11.60503906 -4.628125 12.29210937 -5 13 C-6.65 13 -8.3 13 -10 13 C-10.33 12.34 -10.66 11.68 -11 11 C-8.525 11.495 -8.525 11.495 -6 12 C-6 10.68 -6 9.36 -6 8 C-6.66 7.67 -7.32 7.34 -8 7 C-7.34 7 -6.68 7 -6 7 C-5.67 6.34 -5.34 5.68 -5 5 C-4.34 5.33 -3.68 5.66 -3 6 C-3 4.35 -3 2.7 -3 1 C-2.01 0.67 -1.02 0.34 0 0 Z " fill="#D13A61" transform="translate(178,180)"/>
<path d="M0 0 C0.99 0.33 1.98 0.66 3 1 C1.625 2.5 1.625 2.5 0 4 C-0.66 4 -1.32 4 -2 4 C-2.226875 4.515625 -2.45375 5.03125 -2.6875 5.5625 C-4.4975553 8.92403127 -6.73996404 11.92911144 -9 15 C-10 12 -10 12 -9.22265625 10.17578125 C-8.1484375 8.45052083 -7.07421875 6.72526042 -6 5 C-5.34 5 -4.68 5 -4 5 C-4 4.34 -4 3.68 -4 3 C-2.68 2.67 -1.36 2.34 0 2 C0 1.34 0 0.68 0 0 Z " fill="#CE4162" transform="translate(227,71)"/>
<path d="M0 0 C3.54517727 0.67435437 7.01712143 1.49340511 10.5 2.4375 C11.4178125 2.68371094 12.335625 2.92992187 13.28125 3.18359375 C15.93034024 3.97908205 18.44974436 4.93277345 21 6 C21 6.33 21 6.66 21 7 C12.87444134 6.83007387 7.00353714 5.11704678 0 1 C0 0.67 0 0.34 0 0 Z " fill="#98345A" transform="translate(187,243)"/>
<path d="M0 0 C1.65 0.33 3.3 0.66 5 1 C3.68 3.31 2.36 5.62 1 8 C0.01 8 -0.98 8 -2 8 C-3.125 4.25 -3.125 4.25 -2 2 C-1.34 2 -0.68 2 0 2 C0 1.34 0 0.68 0 0 Z " fill="#DE3156" transform="translate(355,224)"/>
<path d="M0 0 C2.35953094 2.35953094 2.49141413 3.77895617 3 7 C2.34 7 1.68 7 1 7 C1 7.99 1 8.98 1 10 C0.01 10.33 -0.98 10.66 -2 11 C-2.66 10.67 -3.32 10.34 -4 10 C-4 9.01 -4 8.02 -4 7 C-3.34 7 -2.68 7 -2 7 C-2.33 5.35 -2.66 3.7 -3 2 C-2.01 2 -1.02 2 0 2 C0 1.34 0 0.68 0 0 Z " fill="#C72E5E" transform="translate(285,212)"/>
<path d="M0 0 C0.66 0 1.32 0 2 0 C2.268125 0.969375 2.53625 1.93875 2.8125 2.9375 C3.204375 3.948125 3.59625 4.95875 4 6 C4.99 6.33 5.98 6.66 7 7 C7 8.32 7 9.64 7 11 C7.66 11.33 8.32 11.66 9 12 C8.34 12 7.68 12 7 12 C6.67 13.32 6.34 14.64 6 16 C4.9955866 13.7101766 3.99632388 11.4183401 3 9.125 C2.71382813 8.47402344 2.42765625 7.82304687 2.1328125 7.15234375 C0 2.2265625 0 2.2265625 0 0 Z " fill="#7D2D52" transform="translate(119,195)"/>
<path d="M0 0 C2.105868 2.105868 2.92752247 3.7365229 4.125 6.4375 C4.47820312 7.21996094 4.83140625 8.00242188 5.1953125 8.80859375 C6 11 6 11 6 14 C5.34 14 4.68 14 4 14 C3.18697675 12.54195831 2.37459869 11.08355685 1.5625 9.625 C1.11003906 8.81289062 0.65757812 8.00078125 0.19140625 7.1640625 C-0.5650536 5.79003378 -1.29854631 4.40290739 -2 3 C-1.34 3 -0.68 3 0 3 C0 2.01 0 1.02 0 0 Z " fill="#CE5A6E" transform="translate(367,152)"/>
<path d="M0 0 C0 0.99 0 1.98 0 3 C-0.66 3 -1.32 3 -2 3 C-2 3.99 -2 4.98 -2 6 C-3.98 6.33 -5.96 6.66 -8 7 C-8 7.66 -8 8.32 -8 9 C-8.99 8.67 -9.98 8.34 -11 8 C-9.75 6 -9.75 6 -8 4 C-6.68 4 -5.36 4 -4 4 C-4 3.01 -4 2.02 -4 1 C-2 0 -2 0 0 0 Z " fill="#F12E5C" transform="translate(192,81)"/>
<path d="M0 0 C2.64 0 5.28 0 8 0 C8.33 0.99 8.66 1.98 9 3 C8.01 3.495 8.01 3.495 7 4 C7.66 4.33 8.32 4.66 9 5 C9 6.32 9 7.64 9 9 C8.34 9 7.68 9 7 9 C5.78125 7.5390625 5.78125 7.5390625 4.5 5.625 C3.07753774 3.51732726 1.80845027 1.80845027 0 0 Z " fill="#972C60" transform="translate(135,228)"/>
<path d="M0 0 C0.66 0.33 1.32 0.66 2 1 C1.34 2.98 0.68 4.96 0 7 C-4.455 7.495 -4.455 7.495 -9 8 C-6.14723863 5.06799526 -3.34920216 2.35684596 0 0 Z " fill="#D83C62" transform="translate(178,153)"/>
<path d="M0 0 C0.99 0.66 1.98 1.32 3 2 C2.43628586 5.26954202 1.50037734 6.82575883 -1 9 C0.32 9.33 1.64 9.66 3 10 C2 11 2 11 -0.5625 11.0625 C-1.366875 11.041875 -2.17125 11.02125 -3 11 C-3 7 -3 7 -1 5 C-0.35232207 2.42938689 -0.35232207 2.42938689 0 0 Z " fill="#DE345D" transform="translate(177,107)"/>
<path d="M0 0 C4.3177458 0.50797009 8.03302114 1.19682779 12 3 C11.01 3.66 10.02 4.32 9 5 C6.95703125 4.5390625 6.95703125 4.5390625 4.8125 3.625 C4.09707031 3.32851562 3.38164062 3.03203125 2.64453125 2.7265625 C2.10183594 2.48679687 1.55914062 2.24703125 1 2 C0.34 3.32 -0.32 4.64 -1 6 C-1 3 -1 3 0 0 Z " fill="#DCA59C" transform="translate(289,86)"/>
<path d="M0 0 C0.66 0 1.32 0 2 0 C1.53411505 5.70709064 0.06242216 9.15939723 -3 14 C-3.98120464 10.94736336 -3.98120464 9.05263664 -3 6 C-2.01 6 -1.02 6 0 6 C0 5.34 0 4.68 0 4 C-0.66 3.34 -1.32 2.68 -2 2 C-1.34 2 -0.68 2 0 2 C0 1.34 0 0.68 0 0 Z " fill="#D17A81" transform="translate(302,60)"/>
<path d="M0 0 C3.16115776 1.36983503 3.9927092 1.9890638 6 5 C6.99 5.33 7.98 5.66 9 6 C9 7.32 9 8.64 9 10 C8.34 10 7.68 10 7 10 C7 9.34 7 8.68 7 8 C6.401875 7.731875 5.80375 7.46375 5.1875 7.1875 C2.98180967 5.99012525 1.56416813 4.95521016 0 3 C0 2.01 0 1.02 0 0 Z " fill="#F3556F" transform="translate(292,150)"/>
<path d="M0 0 C1.22589844 0.01353516 1.22589844 0.01353516 2.4765625 0.02734375 C3.41628906 0.04474609 3.41628906 0.04474609 4.375 0.0625 C3.385 0.5575 3.385 0.5575 2.375 1.0625 C2.375 1.7225 2.375 2.3825 2.375 3.0625 C-1.585 3.0625 -5.545 3.0625 -9.625 3.0625 C-5.93535266 0.60273511 -4.35071521 -0.06215307 0 0 Z " fill="#ECCEAC" transform="translate(260.625,96.9375)"/>
<path d="M0 0 C0 0.99 0 1.98 0 3 C-0.763125 3.226875 -1.52625 3.45375 -2.3125 3.6875 C-5.55904453 5.27302175 -6.28802794 6.90214579 -8 10 C-8.66 10 -9.32 10 -10 10 C-10.33 9.01 -10.66 8.02 -11 7 C-9.54634731 5.82750647 -8.08692581 4.66216184 -6.625 3.5 C-5.40683594 2.52546875 -5.40683594 2.52546875 -4.1640625 1.53125 C-2 0 -2 0 0 0 Z " fill="#D94165" transform="translate(188,82)"/>
<path d="M0 0 C0.66 0.66 1.32 1.32 2 2 C1.34 3.32 0.68 4.64 0 6 C-0.66 6 -1.32 6 -2 6 C-1.67 4.35 -1.34 2.7 -1 1 C-1.99 1.33 -2.98 1.66 -4 2 C-5.56118428 2.06740865 -7.1250252 2.08514456 -8.6875 2.0625 C-9.89986328 2.04896484 -9.89986328 2.04896484 -11.13671875 2.03515625 C-12.05904297 2.01775391 -12.05904297 2.01775391 -13 2 C-13 1.67 -13 1.34 -13 1 C-8.57117061 -0.10720735 -4.53942698 -0.22325051 0 0 Z " fill="#DC4265" transform="translate(196,138)"/>
<path d="M0 0 C2.96175123 0.61277612 4.38058783 1.25372522 7 3 C7.1875 5.625 7.1875 5.625 7 8 C5.68 8 4.36 8 3 8 C2.690625 7.05125 2.38125 6.1025 2.0625 5.125 C1.12605258 2.13919592 1.12605258 2.13919592 0 0 Z " fill="#E1737F" transform="translate(325,104)"/>
<path d="M0 0 C-2.97 2.97 -5.94 5.94 -9 9 C-10 6 -10 6 -8.875 3.4375 C-6.49423908 0.3425108 -3.82595237 -1.91297618 0 0 Z " fill="#D13B5F" transform="translate(189,171)"/>
<path d="M0 0 C6.37675351 6.20440882 6.37675351 6.20440882 8 9 C7.5703125 11.12109375 7.5703125 11.12109375 7 13 C5.82786955 11.21190303 4.66244474 9.41940875 3.5 7.625 C2.8503125 6.62726563 2.200625 5.62953125 1.53125 4.6015625 C0 2 0 2 0 0 Z " fill="#813056" transform="translate(136,229)"/>
<path d="M0 0 C3.63 0.66 7.26 1.32 11 2 C9.68 2.33 8.36 2.66 7 3 C7 3.66 7 4.32 7 5 C5.68 5 4.36 5 3 5 C3 4.34 3 3.68 3 3 C2.01 2.67 1.02 2.34 0 2 C0 1.34 0 0.68 0 0 Z " fill="#EE395A" transform="translate(295,129)"/>
<path d="M0 0 C4.75 0.875 4.75 0.875 7 2 C7 3.32 7 4.64 7 6 C2.25 4.125 2.25 4.125 0 3 C0 2.01 0 1.02 0 0 Z " fill="#A52D60" transform="translate(209,296)"/>
<path d="M0 0 C0.99 0.33 1.98 0.66 3 1 C2.67 2.98 2.34 4.96 2 7 C1.01 6.67 0.02 6.34 -1 6 C-1.8125 4.0625 -1.8125 4.0625 -2 2 C-1.34 1.34 -0.68 0.68 0 0 Z " fill="#EC2D5D" transform="translate(329,256)"/>
<path d="M0 0 C1.5 1.25 1.5 1.25 3 3 C3 4.32 3 5.64 3 7 C0.0625 6.1875 0.0625 6.1875 -3 5 C-3.33 4.01 -3.66 3.02 -4 2 C-2.68 2.33 -1.36 2.66 0 3 C0 2.01 0 1.02 0 0 Z " fill="#F58388" transform="translate(364,154)"/>
<path d="M0 0 C4 0 4 0 6.625 2.25 C8.57665881 4.50981547 9.8867446 6.26746402 11 9 C9 9 9 9 6.625 6.75 C5.75875 5.8425 4.8925 4.935 4 4 C3.236875 3.236875 2.47375 2.47375 1.6875 1.6875 C1.130625 1.130625 0.57375 0.57375 0 0 Z " fill="#EC767D" transform="translate(336,125)"/>
<path d="M0 0 C-3.732388 3.57011026 -8.0949989 4.10913442 -13 5 C-13 4.34 -13 3.68 -13 3 C-11.21189234 2.30329584 -9.41937948 1.61788811 -7.625 0.9375 C-6.62726563 0.55464844 -5.62953125 0.17179687 -4.6015625 -0.22265625 C-2 -1 -2 -1 0 0 Z " fill="#D74267" transform="translate(194,112)"/>
<path d="M0 0 C0.99 0.33 1.98 0.66 3 1 C2.34 2.98 1.68 4.96 1 7 C0.34 7 -0.32 7 -1 7 C-1.66 5.35 -2.32 3.7 -3 2 C-2.01 1.34 -1.02 0.68 0 0 Z " fill="#F52C57" transform="translate(182,102)"/>
<path d="M0 0 C-0.33 0.66 -0.66 1.32 -1 2 C-3.97 2 -6.94 2 -10 2 C-9.67 1.01 -9.34 0.02 -9 -1 C-5.79937313 -2.60031344 -3.27728194 -1.03173691 0 0 Z " fill="#E6978A" transform="translate(308,94)"/>
<path d="M0 0 C0.99 0.33 1.98 0.66 3 1 C2.25 5.75 2.25 5.75 0 8 C-0.99 7.67 -1.98 7.34 -3 7 C-2.01 4.69 -1.02 2.38 0 0 Z " fill="#C0566B" transform="translate(249,59)"/>
<path d="M0 0 C0.33 0 0.66 0 1 0 C1.2493357 1.60115576 1.47378648 3.20620159 1.6875 4.8125 C1.81511719 5.70582031 1.94273437 6.59914062 2.07421875 7.51953125 C2 10 2 10 0.64453125 11.82421875 C-1 13 -1 13 -3 13 C-2.01 8.71 -1.02 4.42 0 0 Z " fill="#B23A60" transform="translate(286,201)"/>
<path d="M0 0 C0.66 0.33 1.32 0.66 2 1 C2 1.66 2 2.32 2 3 C2.66 3 3.32 3 4 3 C4.33 4.32 4.66 5.64 5 7 C4.4225 6.690625 3.845 6.38125 3.25 6.0625 C1.15705816 5.07416636 -0.74535275 4.4831387 -3 4 C-2.67 3.01 -2.34 2.02 -2 1 C-1.34 0.67 -0.68 0.34 0 0 Z " fill="#F0345D" transform="translate(371,171)"/>
<path d="M0 0 C0.66 0.33 1.32 0.66 2 1 C1.07347299 2.17539996 0.13336613 3.34010577 -0.8125 4.5 C-1.33457031 5.1496875 -1.85664063 5.799375 -2.39453125 6.46875 C-4 8 -4 8 -7 8 C-5.50902342 4.2047869 -3.24299151 2.38957269 0 0 Z " fill="#B5395F" transform="translate(265,235)"/>
<path d="M0 0 C2.00720923 0.28674418 4.0085944 0.61866701 6 1 C5.67 3.31 5.34 5.62 5 8 C4.34 8 3.68 8 3 8 C2.896875 7.21625 2.79375 6.4325 2.6875 5.625 C2.22404978 2.66954819 2.22404978 2.66954819 -1 1 C-0.67 0.67 -0.34 0.34 0 0 Z " fill="#F12E5C" transform="translate(194,136)"/>
<path d="M0 0 C0.66 1.32 1.32 2.64 2 4 C-0.31 4.66 -2.62 5.32 -5 6 C-5 6.66 -5 7.32 -5 8 C-5.66 7.67 -6.32 7.34 -7 7 C-5.74797133 3.24391399 -4.36936427 2.85315035 -1 1 C-0.67 0.67 -0.34 0.34 0 0 Z " fill="#DF777B" transform="translate(289,82)"/>
<path d="M0 0 C0.99 0.33 1.98 0.66 3 1 C2.67 1.99 2.34 2.98 2 4 C-0.375 4.625 -0.375 4.625 -3 5 C-3.66 4.34 -4.32 3.68 -5 3 C-2.6875 1.4375 -2.6875 1.4375 0 0 Z " fill="#F4345C" transform="translate(206,73)"/>
<path d="M0 0 C0 1.65 0 3.3 0 5 C-0.66 5 -1.32 5 -2 5 C-2.33 4.34 -2.66 3.68 -3 3 C-3.99 2.67 -4.98 2.34 -6 2 C-6 1.34 -6 0.68 -6 0 C-3.50907189 -1.24546405 -2.58919267 -0.7767578 0 0 Z " fill="#B42A60" transform="translate(203,250)"/>
<path d="M0 0 C3.98069267 2.87494471 6.43571997 5.82117329 9 10 C7.68 10 6.36 10 5 10 C3.33333333 6.66666667 1.66666667 3.33333333 0 0 Z " fill="#8D3B60" transform="translate(135,201)"/>
<path d="M0 0 C-0.39803561 2.88575819 -0.79009069 3.82189513 -3.0625 5.75 C-3.701875 6.1625 -4.34125 6.575 -5 7 C-5.33 5.68 -5.66 4.36 -6 3 C-5.34 3 -4.68 3 -4 3 C-4 2.34 -4 1.68 -4 1 C-2 0 -2 0 0 0 Z " fill="#EE3C64" transform="translate(220,87)"/>
<path d="M0 0 C-4.455 2.97 -4.455 2.97 -9 6 C-9 4.35 -9 2.7 -9 1 C-2.25 -1.125 -2.25 -1.125 0 0 Z " fill="#D44F6A" transform="translate(239,65)"/>
<path d="M0 0 C-2.71182212 2.60334924 -3.89133813 2.99456691 -7.75 3.1875 C-8.8225 3.125625 -9.895 3.06375 -11 3 C-8.15930939 0.15930939 -3.81147953 -1.90573977 0 0 Z " fill="#D47A89" transform="translate(289,68)"/>
<path d="M0 0 C0.66 0 1.32 0 2 0 C2.95024979 3.69541586 2.95024979 6.30458414 2 10 C-0.09350689 6.5980513 -0.17942163 3.94727588 0 0 Z " fill="#945C73" transform="translate(106,149)"/>
<path d="M0 0 C0.66 0.33 1.32 0.66 2 1 C2 2.98 2 4.96 2 7 C1.01 7 0.02 7 -1 7 C-1.04254356 5.00045254 -1.04080783 2.99958364 -1 1 C-0.67 0.67 -0.34 0.34 0 0 Z " fill="#EB315E" transform="translate(361,213)"/>
<path d="M0 0 C1.125 1.6875 1.125 1.6875 2 4 C1.125 6.75 1.125 6.75 0 9 C-0.99 8.67 -1.98 8.34 -3 8 C-2.01 5.36 -1.02 2.72 0 0 Z " fill="#A1285A" transform="translate(121,186)"/>
<path d="M0 0 C4 0 4 0 7 2 C6.67 2.66 6.34 3.32 6 4 C1.25 3.25 1.25 3.25 -1 1 C-0.67 0.67 -0.34 0.34 0 0 Z " fill="#9D2A56" transform="translate(114,179)"/>
<path d="M0 0 C0.99 0.33 1.98 0.66 3 1 C2.38125 1.4125 1.7625 1.825 1.125 2.25 C-1.06768281 4.05573879 -1.92788417 5.4090534 -3 8 C-3 7.34 -3 6.68 -3 6 C-3.66 5.67 -4.32 5.34 -5 5 C-4.34 5 -3.68 5 -3 5 C-2.87625 4.360625 -2.7525 3.72125 -2.625 3.0625 C-2.41875 2.381875 -2.2125 1.70125 -2 1 C-1.34 0.67 -0.68 0.34 0 0 Z " fill="#EF305E" transform="translate(182,152)"/>
<path d="M0 0 C1.98 0 3.96 0 6 0 C5.67 1.32 5.34 2.64 5 4 C2.525 3.01 2.525 3.01 0 2 C0 1.34 0 0.68 0 0 Z " fill="#962D60" transform="translate(144,240)"/>
<path d="M0 0 C1.32 0.33 2.64 0.66 4 1 C3.01 1 2.02 1 1 1 C0.34 2.65 -0.32 4.3 -1 6 C-1.99 5.67 -2.98 5.34 -4 5 C-2.68 3.35 -1.36 1.7 0 0 Z " fill="#F62F5D" transform="translate(349,233)"/>
<path d="M0 0 C1.32 0.33 2.64 0.66 4 1 C3.34 1 2.68 1 2 1 C2 1.99 2 2.98 2 4 C0.35 4.66 -1.3 5.32 -3 6 C-2.67 4.68 -2.34 3.36 -2 2 C-1.34 2 -0.68 2 0 2 C0 1.34 0 0.68 0 0 Z " fill="#F42E5A" transform="translate(355,224)"/>
<path d="M0 0 C0.99 0.33 1.98 0.66 3 1 C3.33 2.98 3.66 4.96 4 7 C3.01 7 2.02 7 1 7 C-0.0625 4.625 -0.0625 4.625 -1 2 C-0.67 1.34 -0.34 0.68 0 0 Z " fill="#EA4A62" transform="translate(353,132)"/>
<path d="M0 0 C0.33 0.66 0.66 1.32 1 2 C1.66 2 2.32 2 3 2 C3 2.66 3 3.32 3 4 C3.99 4 4.98 4 6 4 C5.67 4.66 5.34 5.32 5 6 C3.35 5.67 1.7 5.34 0 5 C-0.5625 3.0625 -0.5625 3.0625 -1 1 C-0.67 0.67 -0.34 0.34 0 0 Z " fill="#ED6675" transform="translate(337,115)"/>
<path d="M0 0 C0.33 0 0.66 0 1 0 C0.38461538 6.52307692 0.38461538 6.52307692 -1.5625 8.9375 C-2.036875 9.288125 -2.51125 9.63875 -3 10 C-3 6.13304322 -1.58090029 3.4911548 0 0 Z " fill="#E13661" transform="translate(202,100)"/>
</svg>
